<?xml version="1.0" encoding="utf-8"?>
<!-- Generator: Adobe Illustrator 24.0.1, SVG Export Plug-In . SVG Version: 6.00 Build 0)  -->
<svg version="1.1" id="Capa_1" xmlns="http://www.w3.org/2000/svg" xmlns:xlink="http://www.w3.org/1999/xlink" x="0px" y="0px"
	 viewBox="0 0 512 512" style="enable-background:new 0 0 512 512;" xml:space="preserve">
<style type="text/css">
	.st0{fill:#E04149;}
	.st1{fill:#EAEAEA;}
	.st2{fill:#B75129;}
	.st3{fill:#353C44;}
</style>
<path class="st0" d="M77.6,7.6h355.8v496.8H77.6V7.6z"/>
<path class="st1" d="M108,38h295v295H108V38z"/>
<path class="st2" d="M359.7,164.3c0,13.1-2.2,25.6-6.3,37.3c-15.4,44.1-57.3,75.7-106.6,75.9v32.3h-100
	c12.7-63,33.4-165.3,35.3-170.9c6.8-20,21.6-36.8,41.5-46l4.6-2.1v73.5c0-15.3,4.5-30,12.4-42.4s19.4-22.6,33.3-29l4.6-2.1v73.5
	L359.7,164.3L359.7,164.3z"/>
<path class="st3" d="M359.7,164.3c0,13.1-2.2,25.6-6.3,37.3l-0.6-0.1c-17-3.8-29.7-19-29.7-37.2l0,0H359.7z"/>
<path d="M433.4,0H77.6C73.4,0,70,3.4,70,7.6v496.8c0,4.2,3.4,7.6,7.6,7.6h242.5c4.2,0,7.6-3.4,7.6-7.6s-3.4-7.6-7.6-7.6H85.2V15.2
	h340.6v481.6h-80.4c-4.2,0-7.6,3.4-7.6,7.6s3.4,7.6,7.6,7.6h88c4.2,0,7.6-3.4,7.6-7.6V7.6C441.1,3.4,437.7,0,433.4,0z"/>
<path d="M108,96.6c-4.2,0-7.6,3.4-7.6,7.6V333c0,4.2,3.4,7.6,7.6,7.6h295c4.2,0,7.6-3.4,7.6-7.6V38c0-4.2-3.4-7.6-7.6-7.6H108
	c-4.2,0-7.6,3.4-7.6,7.6v40.8c0,4.2,3.4,7.6,7.6,7.6s7.6-3.4,7.6-7.6V45.6h279.8v279.8H115.6V104.2C115.6,100,112.2,96.6,108,96.6z"
	/>
<path d="M232.2,84.4c-2.2-1.4-4.9-1.6-7.3-0.5l-4.6,2.1c-21.3,9.8-37.9,28.2-45.5,50.4c-0.6,1.7-2.3,6.7-35.6,171.8
	c-0.8,4.1,1.8,8.1,6,9c0.5,0.1,1,0.2,1.5,0.2c3.5,0,6.7-2.5,7.4-6.1c28.5-141.3,34.2-167.2,35-169.9c5.5-16.1,16.7-29.7,31.3-38.3
	v61.2c0,4.2,3.4,7.6,7.6,7.6s7.6-3.4,7.6-7.6c0-13.6,3.9-26.8,11.2-38.3c6.1-9.5,14.2-17.3,23.9-23v61.2c0,4.2,3.4,7.6,7.6,7.6H316
	c2.6,15.3,13,28.4,27.2,34.5c-16.6,38.2-54.5,63.4-96.6,63.5c-4.2,0-7.6,3.4-7.6,7.6v32.3c0,4.2,3.4,7.6,7.6,7.6s7.6-3.4,7.6-7.6
	v-25c48.1-3.1,90.1-34.8,106.2-80.7c4.5-12.8,6.7-26.2,6.7-39.8c0-4.2-3.4-7.6-7.6-7.6H286V90.8c0-2.6-1.3-5-3.5-6.4
	s-4.9-1.6-7.3-0.5l-4.6,2.1c-14.1,6.5-26.1,16.6-34.9,29.4V90.8C235.8,88.2,234.4,85.7,232.2,84.4z M348.4,191.9
	c-8.3-3.8-14.4-11.3-16.7-20.1h20.1C351.3,178.7,350.2,185.4,348.4,191.9z"/>
<path d="M285.3,205.5v-10.7c0-4.2-3.4-7.6-7.6-7.6s-7.6,3.4-7.6,7.6v10.7c0,4.2,3.4,7.6,7.6,7.6S285.3,209.7,285.3,205.5z"/>
<path d="M259.6,205.5v-10.7c0-4.2-3.4-7.6-7.6-7.6c-4.2,0-7.6,3.4-7.6,7.6v10.7c0,4.2,3.4,7.6,7.6,7.6S259.6,209.7,259.6,205.5z"/>
<path d="M191.3,381.7c-2.3-1.2-5.1-1.9-8.3-1.9c-3.2,0-5.9,0.6-8.3,1.9c-2.3,1.2-4.2,3-5.4,5.3c-1.3,2.3-1.9,5-1.9,8.1
	c0,3.2,0.6,5.9,1.9,8.2c1.3,2.3,3.1,4.1,5.4,5.3c2.3,1.3,5.1,1.9,8.3,1.9c3.2,0,5.9-0.6,8.3-1.9c2.3-1.3,4.2-3,5.5-5.3
	c1.3-2.3,1.9-5,1.9-8.2c0-3.1-0.7-5.8-1.9-8.1C195.4,384.7,193.6,382.9,191.3,381.7z M187.7,401.7c-1.2,1.4-2.8,2.1-4.7,2.1
	s-3.5-0.7-4.7-2.1s-1.8-3.6-1.8-6.5c0-2.9,0.6-5.1,1.8-6.5s2.8-2.1,4.7-2.1s3.5,0.7,4.7,2.1c1.2,1.4,1.8,3.5,1.8,6.5
	C189.6,398.1,188.9,400.3,187.7,401.7z M220.6,392.8l-6.3-1.1c-1.9-0.4-2.8-1.2-2.8-2.6c0-0.9,0.4-1.6,1.2-2.2
	c0.8-0.6,2.1-0.9,3.9-0.9c1,0,2,0.1,3.1,0.4c1.1,0.3,2.3,0.7,3.6,1.3c1,0.4,1.9,0.5,2.6,0.1c0.7-0.4,1.2-0.9,1.6-1.7
	c0.3-0.8,0.4-1.5,0.1-2.3c-0.2-0.8-0.8-1.4-1.7-1.9c-2.7-1.4-5.8-2-9.4-2c-2.6,0-4.8,0.4-6.8,1.2c-2,0.8-3.5,1.9-4.6,3.4
	c-1.1,1.4-1.7,3.2-1.7,5.2c0,2.2,0.7,4,2,5.3c1.3,1.4,3.2,2.3,5.8,2.7l6.3,1.1c2,0.4,3.1,1.2,3.1,2.6c0,0.9-0.4,1.6-1.2,2.1
	c-0.8,0.5-2,0.8-3.7,0.8c-1.3,0-2.6-0.1-4-0.4c-1.4-0.3-2.9-0.8-4.5-1.4c-1-0.4-1.8-0.4-2.5,0c-0.7,0.4-1.2,1-1.5,1.7
	c-0.3,0.8-0.3,1.5,0,2.3c0.3,0.8,0.9,1.5,1.9,2c1.5,0.8,3.2,1.3,5.1,1.6c1.9,0.3,3.7,0.5,5.4,0.5c3.9,0,7.1-0.9,9.5-2.6
	c2.4-1.7,3.6-4.1,3.6-7.2c0-2.2-0.7-4-2-5.3C225.2,394.2,223.2,393.3,220.6,392.8z M160.9,402h-16.1v-29.8c0-3.2-1.5-4.7-4.6-4.7
	c-1.5,0-2.7,0.4-3.5,1.2c-0.8,0.8-1.2,2-1.2,3.5v32.9c0,1.5,0.4,2.7,1.2,3.5c0.8,0.8,2,1.2,3.5,1.2h20.6c2.7,0,4-1.3,4-4
	C165,403.3,163.6,402,160.9,402z M252.6,402.8c-0.4,0-0.9,0.1-1.4,0.2c-0.5,0.1-1.1,0.2-1.7,0.2c-1.7,0-3-0.4-3.8-1.3
	c-0.8-0.8-1.2-2.1-1.2-3.8v-10.9h5.7c2.3,0,3.5-1.1,3.5-3.4c0-2.3-1.2-3.4-3.5-3.4h-5.7v-4.6c0-3.1-1.5-4.6-4.5-4.6
	c-3,0-4.6,1.5-4.6,4.6v4.6h-2.5c-2.4,0-3.5,1.1-3.5,3.4c0,2.2,1.2,3.4,3.5,3.4h2.5v11.3c0,8,4.1,12.1,12.4,12.1
	c0.6,0,1.4-0.1,2.3-0.2c0.9-0.1,1.6-0.3,2.1-0.5c0.8-0.3,1.4-0.8,1.7-1.5c0.3-0.7,0.5-1.5,0.5-2.5c0-1.2-0.2-2.1-0.5-2.5
	C253.6,402.9,253.1,402.7,252.6,402.8z M333.4,381.7c-2.3-1.2-5.1-1.9-8.3-1.9c-3.2,0-5.9,0.6-8.3,1.9c-2.3,1.2-4.2,3-5.4,5.3
	s-1.9,5-1.9,8.1c0,3.2,0.6,5.9,1.9,8.2c1.3,2.3,3.1,4.1,5.4,5.3c2.3,1.3,5.1,1.9,8.3,1.9c3.2,0,5.9-0.6,8.3-1.9
	c2.3-1.3,4.2-3,5.5-5.3c1.3-2.3,1.9-5,1.9-8.2c0-3.1-0.7-5.8-1.9-8.1C337.6,384.7,335.7,382.9,333.4,381.7z M329.9,401.7
	c-1.2,1.4-2.8,2.1-4.7,2.1s-3.5-0.7-4.7-2.1s-1.8-3.6-1.8-6.5c0-2.9,0.6-5.1,1.8-6.5s2.8-2.1,4.7-2.1s3.5,0.7,4.7,2.1
	c1.2,1.4,1.8,3.5,1.8,6.5C331.7,398.1,331.1,400.3,329.9,401.7z M299.5,367c-3,0-4.5,1.5-4.5,4.6v12.8c-0.8-1.4-2.1-2.5-3.7-3.4
	c-1.6-0.8-3.4-1.3-5.4-1.3c-2.6,0-4.8,0.6-6.8,1.9c-1.9,1.2-3.4,3-4.5,5.3s-1.6,5-1.6,8.2c0,3.2,0.5,5.9,1.6,8.2
	c1.1,2.3,2.6,4.1,4.5,5.3c1.9,1.3,4.2,1.9,6.8,1.9c2,0,3.8-0.4,5.5-1.3c1.7-0.9,2.9-2.1,3.7-3.6v0.2c0,3.1,1.5,4.6,4.5,4.6
	s4.5-1.5,4.5-4.6v-34.1C304,368.6,302.5,367,299.5,367z M293.3,401.7c-1.2,1.4-2.8,2.1-4.7,2.1s-3.5-0.7-4.7-2.1s-1.8-3.6-1.8-6.5
	c0-2.9,0.6-5.1,1.8-6.5s2.8-2.1,4.7-2.1s3.5,0.7,4.7,2.1c1.2,1.4,1.8,3.5,1.8,6.5C295.1,398.1,294.5,400.3,293.3,401.7z
	 M371.8,379.9c-1.4,0-2.5,0.4-3.3,1.2c-0.8,0.8-1.2,1.9-1.2,3.4v0.1c-0.8-1.4-2-2.6-3.7-3.5c-1.7-0.9-3.5-1.3-5.6-1.3
	c-2.6,0-4.9,0.6-6.9,1.8c-2,1.2-3.5,2.9-4.6,5.1s-1.6,4.8-1.6,7.7c0,3,0.5,5.5,1.6,7.7c1.1,2.2,2.6,3.9,4.6,5.1
	c2,1.2,4.3,1.8,6.9,1.8c2,0,3.9-0.5,5.6-1.4c1.7-0.9,3-2.1,3.8-3.7v3.4c0,4.7-2.6,7.1-7.7,7.1c-1.1,0-2.4-0.1-3.9-0.4
	c-1.5-0.2-3.1-0.8-4.9-1.6c-0.9-0.4-1.8-0.4-2.5,0s-1.3,1-1.6,1.9c-0.3,0.8-0.4,1.7,0,2.6c0.3,0.9,1.1,1.6,2.2,2
	c1.6,0.7,3.3,1.3,5.3,1.6c2,0.4,4,0.5,6.2,0.5c5.1,0,9-1.2,11.7-3.7c2.7-2.5,4-6.2,4-11.2v-22C376.2,381.5,374.7,379.9,371.8,379.9z
	 M365.5,400.3c-1.2,1.4-2.8,2.1-4.8,2.1c-2,0-3.7-0.7-4.9-2.1s-1.8-3.3-1.8-5.8c0-2.5,0.6-4.4,1.8-5.8s2.8-2.1,4.9-2.1
	c2,0,3.6,0.7,4.8,2.1c1.2,1.4,1.8,3.3,1.8,5.8C367.3,397,366.7,398.9,365.5,400.3z"/>
</svg>
