<svg xmlns="http://www.w3.org/2000/svg" viewBox="0 0 512.04 593.49"><defs><style>.cls-1{fill:#fff;}</style></defs><title>Mascotiendalogofooter</title><g id="Capa_2" data-name="Capa 2"><g id="Capa_1-2" data-name="Capa 1"><path class="cls-1" d="M508.74,221.5,308.84,21.8a74.84,74.84,0,0,0-105.6,0L2.94,221.9a10.06,10.06,0,0,0-2.2,10.9A10.27,10.27,0,0,0,10,239h25.3l44.5,264.7v.2c0,.2.1.3.1.5s.1.3.1.4.1.3.1.5.1.3.2.5.1.3.2.4.2.3.2.5.1.2.2.3a2.19,2.19,0,0,0,.3.5c.1.1.1.2.2.2.1.2.3.4.4.6s.1.1.1.2a8,8,0,0,0,1.3,1.3c.1.1.2.1.2.2a1.76,1.76,0,0,1,.5.4c.1.1.2.1.3.2s.3.2.4.3.3.1.4.2.3.1.4.2.3.1.4.2.3.1.5.2.3.1.4.1a1.27,1.27,0,0,0,.6.1c.1,0,.2.1.3.1s.5.1.7.1h.2c.3,0,.6.1,1,.1h332.6a3.4,3.4,0,0,0,1-.1h.2c.2,0,.5-.1.7-.1s.2-.1.3-.1.4-.1.6-.1.3-.1.4-.1.3-.1.5-.2.3-.1.4-.2.3-.1.4-.2.3-.1.4-.2.3-.2.4-.3.2-.1.4-.2a1.76,1.76,0,0,0,.5-.4c.1-.1.2-.1.3-.2a8,8,0,0,0,1.3-1.3c0-.1.1-.1.1-.2s.3-.4.4-.6.1-.2.2-.3.2-.3.3-.5.1-.2.2-.3.2-.3.2-.5.1-.3.2-.4.1-.3.2-.5a.75.75,0,0,0,.1-.5c0-.1.1-.3.1-.4s.1-.3.1-.5v-.2L476.74,239H502a10.05,10.05,0,0,0,6.7-17.5ZM146,492H98.14l-13.5-80H146Zm200,0H166V402a90,90,0,1,1,180,0Zm67.9,0H366V412h61.3Zm39.9-237.6h-57.5a10,10,0,0,0,0,20h54.1L430.74,392h-65.2c-5.1-56-52.3-100-109.5-100a110,110,0,0,0-109.5,100H81.34L61.54,274.4h54.1a10,10,0,1,0,0-20H58.14L55.54,239h21.9a10.33,10.33,0,0,0,7.1-2.9L256,64.5,427.54,236a9.9,9.9,0,0,0,7.1,2.9h21.9ZM438.74,219,263.14,43.3a10,10,0,0,0-14.1,0L73.34,219H34.24L217.34,36a54.92,54.92,0,0,1,77.4-.1l183.1,183-39.1.1Z"/><path class="cls-1" d="M212.48,568.77a10.84,10.84,0,0,1,5.34,1.56,2.47,2.47,0,0,0,2.25.3,3,3,0,0,0,1.5-1.38,3.14,3.14,0,0,0,.3-2.1,2.74,2.74,0,0,0-1.41-1.86,14.51,14.51,0,0,0-4.35-1.8,18.92,18.92,0,0,0-4.29-.54,16.8,16.8,0,0,0-8,1.83A12.77,12.77,0,0,0,198.5,570a16.53,16.53,0,0,0-1.86,8.07,17.06,17.06,0,0,0,1.86,8.16,13,13,0,0,0,5.28,5.37,16.36,16.36,0,0,0,8,1.89A17.79,17.79,0,0,0,216,593a14.82,14.82,0,0,0,4.2-1.74,2.87,2.87,0,0,0,1.38-1.83,3.41,3.41,0,0,0-.18-2.1,2.58,2.58,0,0,0-1.38-1.41,2.42,2.42,0,0,0-2.22.3,11.17,11.17,0,0,1-5.34,1.5,7.42,7.42,0,0,1-6-2.55,10.57,10.57,0,0,1-2.13-7q0-4.5,2.13-6.93A7.59,7.59,0,0,1,212.48,568.77Zm34.8-4a17.79,17.79,0,0,0-15.84,0,13,13,0,0,0-5.22,5.28,16.71,16.71,0,0,0-1.86,8.1,16.89,16.89,0,0,0,1.86,8.13,13,13,0,0,0,5.22,5.31,17.79,17.79,0,0,0,15.84,0,13,13,0,0,0,5.22-5.31,16.89,16.89,0,0,0,1.86-8.13,16.71,16.71,0,0,0-1.86-8.1A13,13,0,0,0,247.28,564.81Zm-2.52,20.55a7.21,7.21,0,0,1-10.8,0q-2-2.43-2-7.17t2-7.17a7.34,7.34,0,0,1,10.8,0q2,2.37,2,7.17T244.76,585.36ZM124.1,550.11a4.13,4.13,0,0,0-2.34.57,5.21,5.21,0,0,0-1.56,2l-13.86,25.62L92.48,552.63a5.06,5.06,0,0,0-1.59-2,4.28,4.28,0,0,0-2.37-.57q-3.6,0-3.6,3.6v36.06q0,3.6,3.48,3.6t3.48-3.6V564.51L103.16,585a4.4,4.4,0,0,0,1.26,1.47,3.15,3.15,0,0,0,1.86.51,3,3,0,0,0,1.8-.48,4.88,4.88,0,0,0,1.26-1.5l11.28-20.58v25.38q0,3.6,3.48,3.6t3.48-3.6V553.71Q127.58,550.11,124.1,550.11Zm60.24,26.22-6-1.14q-3.42-.6-3.42-3.24a3.18,3.18,0,0,1,1.41-2.7,7.46,7.46,0,0,1,4.35-1,13.71,13.71,0,0,1,3.27.42,16.32,16.32,0,0,1,3.57,1.38,2.7,2.7,0,0,0,2.22.21,2.6,2.6,0,0,0,1.41-1.32,3.05,3.05,0,0,0,.24-2,2.38,2.38,0,0,0-1.35-1.65,18.81,18.81,0,0,0-9.42-2.34,17.19,17.19,0,0,0-6.48,1.14,10.14,10.14,0,0,0-4.41,3.24,8,8,0,0,0-1.59,5q0,6.48,7.62,7.92l6,1.14q3.72.72,3.72,3.24a3,3,0,0,1-1.41,2.61,7.51,7.51,0,0,1-4.29,1,19.72,19.72,0,0,1-4.14-.45,20.69,20.69,0,0,1-4.5-1.59A2.54,2.54,0,0,0,169,586a2.49,2.49,0,0,0-1.32,1.35,2.91,2.91,0,0,0-.09,2,3.06,3.06,0,0,0,1.56,1.77,16.16,16.16,0,0,0,5.16,1.86,29.67,29.67,0,0,0,5.46.54q5.7,0,9.12-2.49a8,8,0,0,0,3.42-6.87,6.8,6.8,0,0,0-2-5.16A11.36,11.36,0,0,0,184.34,576.33ZM148.7,563a25.32,25.32,0,0,0-4.65.48,27.07,27.07,0,0,0-5.31,1.62,3,3,0,0,0-1.83,1.68,3.36,3.36,0,0,0-.12,2.25,2.58,2.58,0,0,0,1.29,1.62,2.65,2.65,0,0,0,2.4-.15,20,20,0,0,1,4.23-1.44,18.4,18.4,0,0,1,3.75-.42q3.12,0,4.44,1.32t1.32,4.32v1.26h-2.1a48.68,48.68,0,0,0-10.14.84,10,10,0,0,0-5.46,2.73,7.44,7.44,0,0,0-1.68,5.13,8.31,8.31,0,0,0,1.41,4.74,9.81,9.81,0,0,0,3.9,3.33,12.64,12.64,0,0,0,5.67,1.23,9.64,9.64,0,0,0,5.28-1.41,8.19,8.19,0,0,0,3.24-3.87v1.32q0,3.84,3.54,3.84t3.48-3.84v-14.4q0-6.24-3.12-9.21T148.7,563Zm5.52,18.18a7.17,7.17,0,0,1-1.95,5.16,6.48,6.48,0,0,1-4.89,2,5.49,5.49,0,0,1-3.84-1.26,4.19,4.19,0,0,1-1.38-3.24,3.15,3.15,0,0,1,2.19-3.15q2.19-.87,7.83-.87h2Zm171.72-3.42q0-6.84-3.63-10.8t-9.87-4a14.74,14.74,0,0,0-7.59,1.95,13.89,13.89,0,0,0-5.22,5.37,17.79,17.79,0,0,0,.06,16.08,13.22,13.22,0,0,0,5.55,5.28,18.47,18.47,0,0,0,8.58,1.86,22.64,22.64,0,0,0,5.07-.63,15.59,15.59,0,0,0,4.83-2,3.54,3.54,0,0,0,1.71-2,3,3,0,0,0-.12-2.13,2.37,2.37,0,0,0-1.53-1.29,3.39,3.39,0,0,0-2.64.57,12.78,12.78,0,0,1-3.69,1.35,18.08,18.08,0,0,1-3.51.39q-8.16,0-9-7.86h18.12Q325.94,579.93,325.94,577.71Zm-21-2.1a9.07,9.07,0,0,1,2.46-5.52,7.22,7.22,0,0,1,5.34-2,6.35,6.35,0,0,1,4.95,2,9,9,0,0,1,2,5.61Zm-26.88,11.28a11.18,11.18,0,0,0-1.38.24,8.06,8.06,0,0,1-1.8.18,5.16,5.16,0,0,1-4.08-1.44,6.4,6.4,0,0,1-1.26-4.32V569.19h6.36q3,0,3-2.82t-3-2.82h-6.36v-5.46q0-3.78-3.72-3.78T262,558.09v5.46h-3.12q-3,0-3,2.82t3,2.82H262V582q0,11.52,11.64,11.52a13.7,13.7,0,0,0,2.22-.21,16.26,16.26,0,0,0,2-.45,2.26,2.26,0,0,0,1.41-1.29,5.47,5.47,0,0,0,.39-2.13,3.15,3.15,0,0,0-.48-2.07A1.41,1.41,0,0,0,278.06,586.89Zm147-21q-3.12-3-9.54-3a25.32,25.32,0,0,0-4.65.48,27.07,27.07,0,0,0-5.31,1.62,3,3,0,0,0-1.83,1.68,3.36,3.36,0,0,0-.12,2.25,2.58,2.58,0,0,0,1.29,1.62,2.65,2.65,0,0,0,2.4-.15,20,20,0,0,1,4.23-1.44,18.4,18.4,0,0,1,3.75-.42q3.12,0,4.44,1.32t1.32,4.32v1.26h-2.1a48.68,48.68,0,0,0-10.14.84,10,10,0,0,0-5.46,2.73,7.44,7.44,0,0,0-1.68,5.13,8.31,8.31,0,0,0,1.41,4.74,9.81,9.81,0,0,0,3.9,3.33,12.64,12.64,0,0,0,5.67,1.23,9.64,9.64,0,0,0,5.28-1.41,8.19,8.19,0,0,0,3.24-3.87v1.32q0,3.84,3.54,3.84t3.48-3.84v-14.4Q428.18,568.89,425.06,565.92Zm-4,15.21a7.17,7.17,0,0,1-2,5.16,6.48,6.48,0,0,1-4.89,2,5.49,5.49,0,0,1-3.84-1.26,4.19,4.19,0,0,1-1.38-3.24,3.15,3.15,0,0,1,2.19-3.15q2.19-.87,7.83-.87h2ZM349,563a12.28,12.28,0,0,0-5.73,1.32,10,10,0,0,0-4.05,3.84v-1.26q0-3.78-3.66-3.78t-3.66,3.78v22.68q0,3.84,3.72,3.84t3.78-3.84V576.39a7.68,7.68,0,0,1,1.95-5.49,6.87,6.87,0,0,1,5.25-2.07,4.88,4.88,0,0,1,4,1.56q1.29,1.56,1.29,5v14.16q0,3.84,3.78,3.84t3.72-3.84V575Q359.36,563,349,563Zm42.42-12.84q-3.72,0-3.72,3.78V568a9.27,9.27,0,0,0-3.78-3.66,11.55,11.55,0,0,0-5.64-1.38,12.26,12.26,0,0,0-6.75,1.86,12.41,12.41,0,0,0-4.53,5.25,18.71,18.71,0,0,0-1.62,8.13,19,19,0,0,0,1.62,8.13,11.91,11.91,0,0,0,11.28,7.17,11.47,11.47,0,0,0,5.7-1.41,9.24,9.24,0,0,0,3.78-3.81v1.26q0,3.84,3.72,3.84t3.72-3.84V553.89Q395.18,550.11,391.4,550.11Zm-5.64,35.25a7.21,7.21,0,0,1-10.8,0q-2-2.43-2-7.17t2-7.17a7.34,7.34,0,0,1,10.8,0q2,2.37,2,7.17T385.76,585.36Zm-98-22.23q-3.72,0-3.72,4.08v22a4.36,4.36,0,0,0,1,3,3.5,3.5,0,0,0,2.76,1.08,3.58,3.58,0,0,0,2.82-1.08,4.36,4.36,0,0,0,1-3v-22Q291.56,563.13,287.78,563.13Zm0-13.5a4.82,4.82,0,0,0-3.27,1,4.24,4.24,0,0,0,0,5.85,4.72,4.72,0,0,0,3.27,1q4.44,0,4.44-4T287.78,549.63Z"/></g></g></svg>