<?xml version="1.0" encoding="utf-8"?>
<!-- Generator: Adobe Illustrator 24.0.1, SVG Export Plug-In . SVG Version: 6.00 Build 0)  -->
<svg version="1.1" id="Capa_1" xmlns="http://www.w3.org/2000/svg" xmlns:xlink="http://www.w3.org/1999/xlink" x="0px" y="0px"
	 viewBox="0 0 512 512.2" style="enable-background:new 0 0 512 512.2;" xml:space="preserve">
<style type="text/css">
	.st0{fill:#697ECC;}
	.st1{fill:#FFFFFF;}
</style>
<title>mascotienda-fav</title>
<g>
	<circle class="st0" cx="256" cy="256.1" r="248.8"/>
	<g id="Capa_2_1_">
		<g id="Capa_1-2">
			<path class="st1" d="M444,218.4L295.3,69.8c-21.7-21.6-56.8-21.6-78.5,0l-149,148.8c-2.1,2.1-2.8,5.3-1.6,8.1
				c1.2,2.8,3.9,4.6,6.9,4.6h18.8L125,428.2v0.1c0,0.1,0.1,0.2,0.1,0.4c0,0.1,0.1,0.2,0.1,0.3s0.1,0.2,0.1,0.4
				c0,0.1,0.1,0.2,0.1,0.4c0.1,0.1,0.1,0.2,0.1,0.3s0.1,0.2,0.1,0.4c0,0.1,0.1,0.1,0.1,0.2c0.1,0.1,0.1,0.3,0.2,0.4
				c0.1,0.1,0.1,0.1,0.1,0.1c0.1,0.1,0.2,0.3,0.3,0.4c0.1,0.1,0.1,0.1,0.1,0.1c0.3,0.4,0.6,0.7,1,1c0.1,0.1,0.1,0.1,0.1,0.1
				c0.1,0.1,0.3,0.2,0.4,0.3c0.1,0.1,0.1,0.1,0.2,0.1c0.1,0.1,0.2,0.1,0.3,0.2c0.1,0.1,0.2,0.1,0.3,0.1c0.1,0.1,0.2,0.1,0.3,0.1
				s0.2,0.1,0.3,0.1c0.1,0.1,0.2,0.1,0.4,0.1c0.1,0.1,0.2,0.1,0.3,0.1c0.1,0.1,0.3,0.1,0.4,0.1c0.1,0,0.1,0.1,0.2,0.1
				c0.1,0,0.4,0.1,0.5,0.1h0.1c0.2,0,0.4,0.1,0.7,0.1h247.4c0.3,0,0.5,0,0.7-0.1h0.1c0.1,0,0.4-0.1,0.5-0.1c0.1,0,0.1-0.1,0.2-0.1
				c0.1,0,0.3-0.1,0.4-0.1c0.1,0,0.2-0.1,0.3-0.1c0.1,0,0.2-0.1,0.4-0.1c0.1-0.1,0.2-0.1,0.3-0.1c0.1-0.1,0.2-0.1,0.3-0.1
				c0.1-0.1,0.2-0.1,0.3-0.1c0.1-0.1,0.2-0.1,0.3-0.2c0.1-0.1,0.1-0.1,0.3-0.1c0.1-0.1,0.3-0.2,0.4-0.3c0.1-0.1,0.1-0.1,0.2-0.1
				c0.4-0.3,0.7-0.6,1-1c0-0.1,0.1-0.1,0.1-0.1c0-0.1,0.2-0.3,0.3-0.4c0.1-0.1,0.1-0.1,0.1-0.2c0.1-0.1,0.1-0.2,0.2-0.4
				c0.1-0.1,0.1-0.1,0.1-0.2c0.1-0.1,0.1-0.2,0.1-0.4c0-0.1,0.1-0.2,0.1-0.3c0.1-0.1,0.1-0.2,0.1-0.4c0.1-0.1,0.1-0.2,0.1-0.4
				c0-0.1,0.1-0.2,0.1-0.3c0-0.1,0.1-0.2,0.1-0.4v-0.1l33.3-196.8H439c4.1,0,7.5-3.4,7.4-7.5C446.4,221.8,445.5,219.8,444,218.4
				L444,218.4z M174.2,419.5h-35.6l-10-59.5h45.6V419.5z M322.9,419.5H189.1v-66.9c0-37,30-66.9,66.9-66.9s66.9,30,66.9,66.9V419.5z
				 M373.4,419.5h-35.6V360h45.6L373.4,419.5z M403.1,242.8h-42.8c-4.1,0-7.4,3.3-7.4,7.4s3.3,7.4,7.4,7.4h40.2L386,345.2h-48.5
				c-3.8-41.6-38.9-74.4-81.4-74.4c-42.3,0-77.6,32.3-81.4,74.4h-48.5l-14.7-87.5h40.2c4.1,0,7.4-3.3,7.4-7.4s-3.3-7.4-7.4-7.4
				h-42.8l-1.9-11.5h16.3c2,0,3.9-0.8,5.3-2.2L256,101.6l127.6,127.6c1.4,1.4,3.3,2.2,5.3,2.2h16.3L403.1,242.8z M391.9,216.5
				L261.3,85.8c-2.9-2.9-7.6-2.9-10.5,0L120.1,216.5H91.1L227.2,80.4c15.9-15.8,41.6-15.9,57.6-0.1L421,216.4L391.9,216.5z"/>
		</g>
	</g>
</g>
</svg>
