<?xml version="1.0" encoding="utf-8"?>
<!-- Generator: Adobe Illustrator 24.0.1, SVG Export Plug-In . SVG Version: 6.00 Build 0)  -->
<svg version="1.1" id="Capa_1" xmlns="http://www.w3.org/2000/svg" xmlns:xlink="http://www.w3.org/1999/xlink" x="0px" y="0px"
	 viewBox="0 0 80 80" style="enable-background:new 0 0 80 80;" xml:space="preserve">
<style type="text/css">
	.st0{fill:#2845C8;}
	.st1{fill:#FF5F5F;}
</style>
<g>
	<g>
		<path class="st0" d="M79.5,34.6L48.2,3.4C46.1,1.2,43.1,0,40,0s-6.1,1.2-8.2,3.4L0.5,34.7c-0.5,0.5-0.6,1.1-0.3,1.7
			c0.2,0.6,0.8,1,1.5,1h4l7,41.3c0,0,0,0,0,0c0,0,0,0,0,0.1c0,0,0,0,0,0.1c0,0,0,0,0,0.1c0,0,0,0,0,0.1c0,0,0,0,0,0.1c0,0,0,0,0,0.1
			c0,0,0,0,0,0c0,0,0,0.1,0,0.1c0,0,0,0,0,0c0,0,0,0.1,0.1,0.1c0,0,0,0,0,0c0.1,0.1,0.1,0.1,0.2,0.2c0,0,0,0,0,0c0,0,0,0,0.1,0.1
			c0,0,0,0,0,0c0,0,0,0,0.1,0s0,0,0.1,0c0,0,0,0,0.1,0c0,0,0,0,0.1,0c0,0,0,0,0.1,0c0,0,0,0,0.1,0c0,0,0.1,0,0.1,0c0,0,0,0,0,0
			c0,0,0.1,0,0.1,0c0,0,0,0,0,0c0,0,0.1,0,0.2,0l0,0h51.9l0,0c0,0,0.1,0,0.2,0c0,0,0,0,0,0c0,0,0.1,0,0.1,0c0,0,0,0,0,0
			c0,0,0.1,0,0.1,0c0,0,0,0,0.1,0c0,0,0,0,0.1,0c0,0,0,0,0.1,0c0,0,0,0,0.1,0c0,0,0,0,0.1,0c0,0,0,0,0.1,0c0,0,0,0,0.1,0
			s0,0,0.1-0.1c0,0,0,0,0,0c0.1-0.1,0.1-0.1,0.2-0.2c0,0,0,0,0,0c0,0,0-0.1,0.1-0.1c0,0,0,0,0,0c0,0,0,0,0-0.1c0,0,0,0,0,0
			c0,0,0,0,0-0.1c0,0,0,0,0-0.1c0,0,0,0,0-0.1c0,0,0,0,0-0.1c0,0,0,0,0-0.1c0,0,0,0,0-0.1c0,0,0,0,0,0l7-41.3h4l0,0
			c0.9,0,1.6-0.7,1.6-1.6C80,35.3,79.8,34.9,79.5,34.6z M22.8,76.8h-7.5l-2.1-12.5h9.6V76.8z M54,76.8H25.9V62.8
			c0-7.7,6.3-14.1,14.1-14.1S54,55,54,62.8V76.8z M64.7,76.8h-7.5V64.3h9.6L64.7,76.8z M70.9,39.7h-9c-0.9,0-1.6,0.7-1.6,1.6
			s0.7,1.6,1.6,1.6h8.4l-3.1,18.4H57.1c-0.8-8.7-8.2-15.6-17.1-15.6c-8.9,0-16.3,6.9-17.1,15.6H12.7L9.6,42.9h8.4
			c0.9,0,1.6-0.7,1.6-1.6s-0.7-1.6-1.6-1.6h-9l-0.4-2.4h3.4c0.4,0,0.8-0.2,1.1-0.5L40,10.1l26.8,26.8c0.3,0.3,0.7,0.5,1.1,0.5h3.4
			L70.9,39.7z M68.5,34.2L41.1,6.8c-0.6-0.6-1.6-0.6-2.2,0L11.5,34.2H5.3L33.9,5.6c1.6-1.6,3.7-2.5,6-2.5s4.4,0.9,6,2.5l28.6,28.6
			L68.5,34.2L68.5,34.2z"/>
	</g>
</g>
<path class="st1" d="M46.1,29.4H42v-4.1c0-1.1-0.9-2-2-2c-1.1,0-2,0.9-2,2v4.1h-4.1c-1.1,0-2,0.9-2,2v0c0,1.1,0.9,2,2,2H38v4.1
	c0,1.1,0.9,2,2,2c1.1,0,2-0.9,2-2v-4.1h4.1c1.1,0,2-0.9,2-2v0C48.2,30.3,47.2,29.4,46.1,29.4z"/>
</svg>
