<svg xmlns="http://www.w3.org/2000/svg" viewBox="0 0 1395.36 1263.61"><defs><style>.cls-1{fill:none;}</style></defs><title>paws</title><g id="Capa_2" data-name="Capa 2"><g id="Capa_1-2" data-name="Capa 1"><path d="M206.24,319.47a5.15,5.15,0,1,0,7.28,0A5.15,5.15,0,0,0,206.24,319.47Z"/><path d="M258.34,306.59c-6.83,0-24.34-1-45.85-9.4a44.1,44.1,0,0,0-57.56,57.56c10.6,27,9.35,48.13,9.34,48.33v.08a44.17,44.17,0,0,0,12.84,33.62,43.72,43.72,0,0,0,40.3,12.11,48.9,48.9,0,0,0,32.9-23.76,93.17,93.17,0,0,1,32.76-32.62,48.53,48.53,0,0,0,23.76-32.63,44.35,44.35,0,0,0-48.49-53.29Zm38.4,51.23A38.26,38.26,0,0,1,278,383.53,103.18,103.18,0,0,0,241.36,420a38.56,38.56,0,0,1-26,18.76,33.5,33.5,0,0,1-31-9.29,33.86,33.86,0,0,1-9.85-25.75c.1-1.46,1.33-23.86-10.05-52.81l0-.08a33.79,33.79,0,0,1,44.13-44.13l.08,0c23.51,9.24,42.8,10.16,50,10.13l.62,0a34.06,34.06,0,0,1,37.44,41Z"/><path d="M230.66,324.05a5.15,5.15,0,1,0-2.13,10.08,147.58,147.58,0,0,0,30.23,3.36,5.15,5.15,0,0,0,0-10.3A137.17,137.17,0,0,1,230.66,324.05Z"/><path d="M134.91,300.89c-2.62-9.62-9.28-19.2-18.28-26.29C99.11,260.78,75.19,258.46,64.56,272c-4.8,6.1-6.07,14.52-3.57,23.72,2.62,9.61,9.28,19.2,18.29,26.3C107.88,344.56,143.53,332.57,134.91,300.89Zm-64-7.89c-1.49-5.48-1.41-11.61,2.6-15.62,7.17-7.17,24-4.74,36.72,5.31,7.31,5.75,12.67,13.37,14.72,20.9,6.27,23.06-20.53,25.14-39.32,10.32C78.34,308.15,73,300.52,70.93,293Z"/><path d="M139.2,375c-5.44-7.55-13.9-13.45-23.83-16.61s-20.24-3.25-29-.24C77,361.29,70.4,367.56,67.8,375.73s-.86,17.09,4.91,25.11c5.44,7.54,13.9,13.44,23.83,16.6s20.24,3.25,29,.24,15.76-8.94,18.53-17.63C146.72,391.87,145,383,139.2,375Zm-4.9,22c-1.59,5-5.87,8.9-12.05,11-6.73,2.3-14.75,2.19-22.59-.3s-14.43-7.05-18.59-12.82c-3.82-5.29-5-11-3.45-15.95h0c1.75-5.52,6.56-9.14,12-11,6.73-2.3,14.75-2.19,22.59.3s14.44,7.05,18.59,12.82C134.66,386.27,135.89,391.93,134.3,396.92Z"/><path d="M184.28,272c11-11,9.06-33.17-4.5-50.39-14.45-18.33-38.79-26.14-51.91-13-11,11-9.06,33.17,4.51,50.38C146.86,277.36,171.18,285.11,184.28,272Zm-43.81-19.41c-10.05-12.74-12.48-29.55-5.31-36.72a8.52,8.52,0,0,1,.94-.84c4.31-3.45,10.71-3.06,16-1.37,7.12,2.31,14.28,7.53,19.64,14.33,10.4,13.2,12.7,31.14,4.37,37.56l-.05,0c-3.7,2.92-9.5,3.41-15.9,1.33C153,264.64,145.83,259.41,140.47,252.61Z"/><path d="M258.48,215.1c-16.49-11.88-36.09-5.84-42.74,13.62-6.22,18.2,1.23,41.61,16.85,52.86,16.68,12,36.17,5.61,42.74-13.62C281.55,249.76,274.1,226.35,258.48,215.1Zm7.1,49.53c-2.11,6.18-6,10.46-11,12.05h0c-5,1.59-10.66.36-16-3.46-11.92-8.58-17.88-27.23-13.12-41.17,4.37-12.78,16-16.5,27-8.59C264.36,232,270.35,250.67,265.58,264.63Z"/><path d="M563.6,303.9a5.15,5.15,0,1,0,7.29,0A5.15,5.15,0,0,0,563.6,303.9Z"/><path d="M615.71,291c-6.83,0-24.34-.95-45.85-9.4a44.09,44.09,0,0,0-57.56,57.56c10.6,27,9.35,48.14,9.34,48.34a.17.17,0,0,1,0,.07,44.21,44.21,0,0,0,12.85,33.63,43.7,43.7,0,0,0,40.3,12.1,48.86,48.86,0,0,0,32.9-23.75,92.95,92.95,0,0,1,32.76-32.62,48.59,48.59,0,0,0,23.76-32.63A44.36,44.36,0,0,0,615.71,291Zm38.4,51.24A38.28,38.28,0,0,1,635.38,368a103.25,103.25,0,0,0-36.65,36.5,38.57,38.57,0,0,1-26,18.75,33.48,33.48,0,0,1-31-9.29,33.84,33.84,0,0,1-9.84-25.74c.09-1.46,1.33-23.86-10-52.81l0-.08A33.8,33.8,0,0,1,566,291.15l.08,0c23.5,9.24,42.79,10.16,50,10.13a4.4,4.4,0,0,0,.62,0,34.06,34.06,0,0,1,37.44,41Z"/><path d="M588,308.47a5.15,5.15,0,0,0-2.13,10.08,147,147,0,0,0,30.24,3.36,5.15,5.15,0,0,0,0-10.3A136.51,136.51,0,0,1,588,308.47Z"/><path d="M492.28,285.31C489.66,275.7,483,266.11,474,259c-17.51-13.81-41.44-16.13-52.06-2.61-4.8,6.09-6.07,14.52-3.57,23.72,2.61,9.61,9.28,19.19,18.28,26.29C465.25,329,500.89,317,492.28,285.31Zm-64-7.88c-1.49-5.48-1.41-11.62,2.6-15.63,7.17-7.17,24-4.74,36.72,5.31,7.3,5.76,12.67,13.38,14.72,20.91,6.27,23.05-20.53,25.13-39.32,10.31C435.71,292.57,430.35,285,428.3,277.43Z"/><path d="M496.56,359.37c-5.43-7.54-13.89-13.44-23.82-16.61s-20.24-3.25-29-.24c-9.35,3.2-15.93,9.46-18.53,17.64s-.86,17.09,4.91,25.1c5.44,7.55,13.9,13.44,23.82,16.61s20.24,3.25,29,.24,15.77-8.94,18.54-17.64C504.08,376.3,502.34,367.38,496.56,359.37Zm-4.9,22c-1.59,5-5.87,8.9-12.05,11-6.72,2.3-14.74,2.19-22.58-.31s-14.44-7-18.59-12.81c-3.82-5.3-5.05-11-3.46-15.95h0c1.76-5.51,6.56-9.13,12-11,6.73-2.3,14.75-2.19,22.58.31s14.44,7.05,18.6,12.81C492,370.69,493.25,376.36,491.66,381.35Z"/><path d="M541.65,256.44c11-11,9.06-33.17-4.5-50.38-14.46-18.34-38.79-26.15-51.91-13-11,11-9.07,33.18,4.5,50.39C504.23,261.78,528.55,269.54,541.65,256.44ZM497.83,237c-10-12.74-12.47-29.56-5.31-36.73a10.58,10.58,0,0,1,.94-.83c4.32-3.46,10.72-3.07,16-1.37,7.13,2.3,14.29,7.52,19.65,14.32,10.4,13.2,12.7,31.15,4.36,37.57l0,0c-3.7,2.93-9.5,3.41-15.9,1.34C510.36,249.06,503.2,243.84,497.83,237Z"/><path d="M615.85,199.52c-16.49-11.88-36.09-5.84-42.74,13.62-6.22,18.2,1.23,41.61,16.85,52.87,16.68,12,36.16,5.6,42.73-13.62C638.92,234.18,631.46,210.78,615.85,199.52Zm7.1,49.53c-2.12,6.19-6,10.46-11,12.05h0c-5,1.58-10.65.36-15.95-3.46-11.92-8.59-17.89-27.24-13.12-41.18,4.36-12.77,16-16.49,27-8.59C621.72,216.45,627.72,235.09,623,249.05Z"/><path d="M898.22,638.52a5.15,5.15,0,1,0,7.29,0A5.15,5.15,0,0,0,898.22,638.52Z"/><path d="M950.33,625.63c-6.83,0-24.34-1-45.85-9.4a44.1,44.1,0,0,0-57.56,57.57c10.6,27,9.35,48.13,9.34,48.33v.07a44.15,44.15,0,0,0,12.84,33.63,43.71,43.71,0,0,0,40.3,12.1,48.86,48.86,0,0,0,32.9-23.75,92.95,92.95,0,0,1,32.76-32.62,48.56,48.56,0,0,0,23.76-32.63,44.36,44.36,0,0,0-48.49-53.3Zm38.4,51.24A38.25,38.25,0,0,1,970,702.58a103.25,103.25,0,0,0-36.65,36.5,38.57,38.57,0,0,1-26,18.75,33.48,33.48,0,0,1-31-9.29,33.84,33.84,0,0,1-9.84-25.74c.09-1.46,1.33-23.86-10-52.81l0-.08a33.8,33.8,0,0,1,44.13-44.14l.08,0c23.5,9.24,42.8,10.16,50,10.13a4.3,4.3,0,0,0,.62,0,34.06,34.06,0,0,1,37.44,41Z"/><path d="M922.64,643.09a5.15,5.15,0,1,0-2.12,10.08,146.85,146.85,0,0,0,30.23,3.36,5.15,5.15,0,1,0,0-10.3A135.79,135.79,0,0,1,922.64,643.09Z"/><path d="M826.9,619.93c-2.62-9.61-9.28-19.2-18.28-26.29-17.52-13.81-41.45-16.13-52.07-2.61-4.8,6.09-6.07,14.52-3.57,23.72,2.61,9.61,9.28,19.19,18.28,26.29C799.87,663.61,835.51,651.62,826.9,619.93Zm-64-7.88c-1.49-5.48-1.41-11.62,2.6-15.63,7.17-7.16,24-4.73,36.72,5.31,7.31,5.76,12.67,13.38,14.72,20.91,6.27,23.06-20.53,25.13-39.32,10.31C770.33,627.19,765,619.57,762.92,612.05Z"/><path d="M831.19,694c-5.44-7.54-13.9-13.44-23.83-16.6s-20.24-3.25-29-.25c-9.35,3.2-15.93,9.46-18.53,17.64s-.86,17.09,4.91,25.1c5.44,7.55,13.9,13.45,23.83,16.61s20.23,3.25,29,.24,15.76-8.94,18.53-17.63C838.7,710.92,837,702,831.19,694Zm-4.91,22c-1.58,5-5.86,8.9-12,11-6.72,2.3-14.74,2.19-22.58-.31s-14.43-7-18.59-12.81c-3.82-5.3-5-11-3.45-16h0c1.75-5.52,6.56-9.14,12-11,6.73-2.3,14.75-2.19,22.59.31s14.43,7,18.59,12.81C826.65,705.31,827.87,711,826.28,716Z"/><path d="M876.27,591.07c11-11,9.06-33.18-4.5-50.39-14.46-18.34-38.79-26.15-51.91-13-11,11.05-9.06,33.18,4.5,50.39C838.85,596.4,863.17,604.16,876.27,591.07Zm-43.82-19.41c-10-12.74-12.47-29.56-5.3-36.72a8.39,8.39,0,0,1,.93-.84c4.32-3.45,10.72-3.07,16-1.37,7.12,2.3,14.28,7.52,19.64,14.32,10.4,13.21,12.7,31.15,4.37,37.57l0,0c-3.7,2.92-9.5,3.4-15.9,1.33C845,583.68,837.82,578.46,832.45,571.66Z"/><path d="M950.47,534.14c-16.49-11.88-36.09-5.83-42.74,13.62-6.22,18.2,1.23,41.61,16.85,52.87,16.68,12,36.17,5.6,42.74-13.62C973.54,568.8,966.08,545.4,950.47,534.14Zm7.1,49.54c-2.12,6.18-6,10.46-11,12.05h0c-5,1.59-10.66.36-16-3.46-11.92-8.59-17.88-27.24-13.12-41.18,4.36-12.77,16-16.49,27-8.59C956.35,551.08,962.34,569.71,957.57,583.68Z"/><path d="M1240,980.31a5.15,5.15,0,1,0,7.28,0A5.15,5.15,0,0,0,1240,980.31Z"/><path d="M1292.12,967.42c-6.83,0-24.34-.95-45.85-9.4a44.1,44.1,0,0,0-57.56,57.57c10.6,27,9.35,48.13,9.34,48.33v.07a44.19,44.19,0,0,0,12.84,33.63,43.72,43.72,0,0,0,40.3,12.1,48.86,48.86,0,0,0,32.9-23.75,92.95,92.95,0,0,1,32.76-32.62,48.53,48.53,0,0,0,23.76-32.63,44.36,44.36,0,0,0-48.49-53.3Zm38.4,51.24a38.26,38.26,0,0,1-18.72,25.71,103.18,103.18,0,0,0-36.66,36.5,38.52,38.52,0,0,1-26,18.75,33.47,33.47,0,0,1-31-9.28,33.87,33.87,0,0,1-9.85-25.75c.1-1.46,1.33-23.86-10-52.81l0-.08a33.8,33.8,0,0,1,44.13-44.14l.08,0c23.51,9.23,42.8,10.16,50,10.12a4.3,4.3,0,0,0,.62,0,34.06,34.06,0,0,1,37.44,41Z"/><path d="M1264.44,984.89a5.15,5.15,0,1,0-2.13,10.08,148.32,148.32,0,0,0,30.23,3.36,5.16,5.16,0,0,0,0-10.31A136.21,136.21,0,0,1,1264.44,984.89Z"/><path d="M1168.69,961.73c-2.62-9.62-9.28-19.2-18.28-26.29-17.52-13.82-41.44-16.14-52.07-2.62-4.8,6.1-6.07,14.52-3.57,23.72,2.62,9.61,9.28,19.2,18.29,26.29C1141.66,1005.4,1177.31,993.41,1168.69,961.73Zm-64-7.89c-1.49-5.48-1.41-11.62,2.6-15.63,7.17-7.16,24-4.73,36.72,5.32,7.31,5.75,12.67,13.37,14.72,20.9,6.27,23.06-20.53,25.13-39.32,10.32C1112.12,969,1106.76,961.36,1104.71,953.84Z"/><path d="M1173,1035.78c-5.44-7.54-13.9-13.44-23.82-16.6s-20.25-3.25-29.05-.24c-9.34,3.19-15.93,9.45-18.53,17.63s-.86,17.09,4.91,25.1c5.44,7.55,13.9,13.45,23.83,16.61s20.24,3.25,29,.24,15.76-8.94,18.53-17.63C1180.5,1052.71,1178.75,1043.8,1173,1035.78Zm-4.9,22c-1.59,5-5.87,8.9-12,11-6.73,2.3-14.75,2.19-22.59-.3s-14.43-7-18.59-12.82c-3.82-5.3-5-11-3.45-16h0c1.75-5.52,6.56-9.14,12-11,6.73-2.3,14.75-2.19,22.59.31s14.44,7,18.59,12.82C1168.44,1047.11,1169.67,1052.77,1168.08,1057.76Z"/><path d="M1218.06,932.86c11-11,9.06-33.18-4.5-50.39-14.45-18.33-38.79-26.15-51.91-13-11,11-9.06,33.18,4.51,50.39C1180.64,938.19,1205,946,1218.06,932.86Zm-43.81-19.41c-10-12.74-12.48-29.56-5.31-36.72a8.52,8.52,0,0,1,.94-.84c4.31-3.45,10.71-3.06,15.95-1.37,7.12,2.3,14.28,7.53,19.64,14.33,10.4,13.2,12.7,31.14,4.37,37.56l0,0c-3.7,2.92-9.5,3.41-15.9,1.33C1186.77,925.48,1179.61,920.25,1174.25,913.45Z"/><path d="M1292.26,875.94c-16.49-11.88-36.09-5.84-42.74,13.61-6.22,18.21,1.23,41.62,16.85,52.87,16.68,12,36.17,5.6,42.74-13.62C1315.33,910.59,1307.88,887.19,1292.26,875.94Zm7.1,49.53c-2.11,6.18-6,10.46-11,12h0c-5,1.59-10.66.36-16-3.46-11.92-8.59-17.88-27.23-13.12-41.17,4.37-12.78,16-16.5,27-8.6C1298.14,892.87,1304.13,911.5,1299.36,925.47Z"/><path d="M541.12,653.83a5.15,5.15,0,1,0,7.28,0A5.15,5.15,0,0,0,541.12,653.83Z"/><path d="M593.22,640.94c-6.82,0-24.34-1-45.85-9.4a44.09,44.09,0,0,0-57.55,57.57c10.6,27,9.35,48.13,9.34,48.33a.17.17,0,0,0,0,.07A44.16,44.16,0,0,0,512,771.14a43.7,43.7,0,0,0,40.3,12.1,48.86,48.86,0,0,0,32.9-23.75A93,93,0,0,1,618,726.87a48.55,48.55,0,0,0,23.77-32.63,44.36,44.36,0,0,0-48.5-53.3Zm38.4,51.24a38.23,38.23,0,0,1-18.72,25.71,103.25,103.25,0,0,0-36.65,36.5,38.54,38.54,0,0,1-26,18.75,33.48,33.48,0,0,1-31-9.28,33.87,33.87,0,0,1-9.85-25.75c.1-1.46,1.34-23.86-10-52.81l0-.08a33.8,33.8,0,0,1,44.14-44.14l.08,0c23.5,9.23,42.79,10.16,50,10.12a4.21,4.21,0,0,0,.62,0,34.06,34.06,0,0,1,37.44,41Z"/><path d="M565.54,658.41a5.15,5.15,0,0,0-2.13,10.08,148.33,148.33,0,0,0,30.24,3.36,5.16,5.16,0,0,0,0-10.31A136.28,136.28,0,0,1,565.54,658.41Z"/><path d="M469.8,635.25c-2.62-9.62-9.29-19.2-18.29-26.29-17.51-13.82-41.44-16.14-52.06-2.62-4.81,6.1-6.08,14.52-3.57,23.72,2.61,9.61,9.28,19.2,18.28,26.29C442.76,678.92,478.41,666.93,469.8,635.25Zm-64-7.89c-1.49-5.48-1.41-11.62,2.6-15.62,7.16-7.17,24-4.74,36.71,5.31,7.31,5.75,12.68,13.37,14.73,20.9,6.27,23.06-20.54,25.13-39.32,10.32C413.23,642.5,407.86,634.88,405.82,627.36Z"/><path d="M474.08,709.3c-5.44-7.54-13.9-13.44-23.82-16.6s-20.24-3.25-29-.24c-9.35,3.19-15.93,9.46-18.53,17.63s-.86,17.09,4.91,25.1c5.44,7.55,13.9,13.45,23.82,16.61s20.24,3.25,29,.24,15.77-8.94,18.53-17.63C481.6,726.23,479.86,717.32,474.08,709.3Zm-4.9,22c-1.59,5-5.87,8.9-12.05,11-6.73,2.3-14.75,2.19-22.58-.3s-14.44-7-18.59-12.82c-3.82-5.3-5-11-3.46-15.95h0c1.76-5.52,6.56-9.14,12.05-11,6.72-2.29,14.74-2.19,22.58.31s14.44,7,18.59,12.82C469.54,720.63,470.77,726.29,469.18,731.28Z"/><path d="M519.16,606.38c11-11,9.07-33.18-4.5-50.39-14.45-18.33-38.78-26.14-51.9-13-11.05,11-9.07,33.17,4.5,50.38C481.74,611.72,506.07,619.47,519.16,606.38ZM475.35,587c-10-12.74-12.47-29.56-5.31-36.72a10.84,10.84,0,0,1,.94-.84c4.32-3.45,10.72-3.06,15.95-1.37,7.12,2.31,14.28,7.53,19.64,14.33,10.41,13.2,12.71,31.14,4.37,37.56l0,0c-3.71,2.92-9.5,3.41-15.91,1.33C487.87,599,480.71,593.77,475.35,587Z"/><path d="M593.37,549.46c-16.49-11.88-36.09-5.84-42.74,13.61-6.22,18.21,1.23,41.62,16.85,52.87,16.68,12,36.16,5.6,42.73-13.62C616.43,584.11,609,560.71,593.37,549.46ZM600.46,599c-2.11,6.18-6,10.46-11,12h0c-5,1.59-10.65.36-16-3.46-11.92-8.59-17.89-27.23-13.13-41.17,4.37-12.78,16-16.5,27-8.6C599.24,566.39,605.24,585,600.46,599Z"/><path d="M882.91,995.62a5.15,5.15,0,1,0,7.29,0A5.15,5.15,0,0,0,882.91,995.62Z"/><path d="M935,982.74c-6.83,0-24.34-1-45.85-9.4a44.09,44.09,0,0,0-57.56,57.56c10.6,27,9.35,48.13,9.34,48.33,0,0,0,0,0,.07A44.27,44.27,0,0,0,894.09,1125a48.9,48.9,0,0,0,32.9-23.76,92.95,92.95,0,0,1,32.76-32.62A48.57,48.57,0,0,0,983.51,1036,44.35,44.35,0,0,0,935,982.74ZM973.41,1034a38.23,38.23,0,0,1-18.72,25.71,103.25,103.25,0,0,0-36.65,36.5,38.58,38.58,0,0,1-26,18.76,34,34,0,0,1-40.84-35c.09-1.46,1.33-23.86-10.05-52.81l0-.08a33.79,33.79,0,0,1,44.13-44.14l.08,0c23.5,9.24,42.79,10.16,50,10.13l.61,0a34.05,34.05,0,0,1,37.44,41Z"/><path d="M907.33,1000.2a5.15,5.15,0,0,0-2.13,10.08,147.66,147.66,0,0,0,30.24,3.36,5.15,5.15,0,0,0,0-10.3A137.25,137.25,0,0,1,907.33,1000.2Z"/><path d="M811.59,977c-2.62-9.62-9.29-19.2-18.29-26.29-17.51-13.82-41.44-16.14-52.06-2.62-4.81,6.1-6.07,14.52-3.57,23.72,2.61,9.61,9.28,19.2,18.28,26.3C784.56,1020.71,820.2,1008.72,811.59,977Zm-64-7.89c-1.49-5.48-1.41-11.61,2.6-15.62,7.17-7.17,24-4.74,36.72,5.31,7.3,5.75,12.67,13.37,14.72,20.9,6.27,23.06-20.53,25.14-39.32,10.32C755,984.29,749.65,976.67,747.61,969.15Z"/><path d="M815.87,1051.1c-5.43-7.55-13.89-13.45-23.82-16.61s-20.24-3.25-29-.24c-9.35,3.19-15.93,9.46-18.53,17.63s-.86,17.09,4.91,25.11c5.44,7.54,13.9,13.44,23.82,16.6s20.24,3.25,29,.24,15.77-8.94,18.54-17.63C823.39,1068,821.65,1059.11,815.87,1051.1Zm-4.9,22c-1.59,5-5.87,8.9-12.05,11-6.72,2.3-14.74,2.19-22.58-.3s-14.44-7-18.59-12.82c-3.82-5.3-5-11-3.46-16h0c1.76-5.52,6.56-9.14,12.05-11,6.73-2.3,14.75-2.19,22.58.3s14.44,7,18.6,12.82C811.34,1062.42,812.56,1068.08,811,1073.07Z"/><path d="M861,948.17c11-11,9.06-33.17-4.5-50.39-14.46-18.33-38.79-26.14-51.91-13-11,11-9.07,33.17,4.5,50.38C823.53,953.51,847.86,961.26,861,948.17Zm-43.82-19.41c-10-12.74-12.47-29.55-5.31-36.72a10.84,10.84,0,0,1,.94-.84c4.32-3.45,10.72-3.06,16-1.37,7.13,2.31,14.28,7.53,19.65,14.33,10.4,13.2,12.7,31.14,4.36,37.56l0,0c-3.7,2.92-9.5,3.41-15.9,1.33C829.66,940.79,822.5,935.56,817.14,928.76Z"/><path d="M935.16,891.25c-16.49-11.88-36.09-5.84-42.74,13.62-6.22,18.2,1.23,41.61,16.85,52.86,16.68,12,36.16,5.61,42.73-13.62C958.23,925.9,950.77,902.5,935.16,891.25Zm7.1,49.53c-2.12,6.18-6,10.46-11,12.05h0c-5,1.59-10.65.36-16-3.46-11.92-8.59-17.89-27.23-13.12-41.17,4.36-12.78,16-16.5,27-8.59C941,908.18,947,926.82,942.26,940.78Z"/><rect class="cls-1" y="1070.42" width="224.44" height="193.19"/><rect class="cls-1" x="1170.92" width="224.44" height="193.19"/></g></g></svg>