<svg xmlns="http://www.w3.org/2000/svg" viewBox="0 0 2421.4 2262.17"><defs><style>.cls-1{fill:#2845c8;}.cls-2{fill:none;}</style></defs><title>pet-paw2</title><g id="Capa_2" data-name="Capa 2"><g id="Capa_1-2" data-name="Capa 1"><path class="cls-1" d="M1232.28,1318a5.15,5.15,0,1,0,7.28,0A5.13,5.13,0,0,0,1232.28,1318Z"/><path class="cls-1" d="M1284.38,1305.15c-6.83,0-24.34-1-45.85-9.4a44.09,44.09,0,0,0-57.56,57.56c10.6,27,9.35,48.14,9.34,48.34v.07a44.17,44.17,0,0,0,12.84,33.63,43.71,43.71,0,0,0,40.3,12.1,48.86,48.86,0,0,0,32.9-23.75,92.95,92.95,0,0,1,32.76-32.62,48.56,48.56,0,0,0,23.76-32.63,44.36,44.36,0,0,0-48.49-53.3Zm38.4,51.24a38.26,38.26,0,0,1-18.72,25.71,103.18,103.18,0,0,0-36.66,36.5,38.57,38.57,0,0,1-26,18.75,33.48,33.48,0,0,1-31-9.29,33.84,33.84,0,0,1-9.84-25.74c.09-1.46,1.33-23.86-10-52.81l0-.08a33.8,33.8,0,0,1,44.13-44.14l.08,0c23.5,9.24,42.8,10.16,50,10.13a4.3,4.3,0,0,0,.62,0,34.06,34.06,0,0,1,37.44,41Z"/><path class="cls-1" d="M1256.7,1322.61a5.15,5.15,0,1,0-2.13,10.08,146.85,146.85,0,0,0,30.23,3.36,5.15,5.15,0,1,0,0-10.3A136.37,136.37,0,0,1,1256.7,1322.61Z"/><path class="cls-1" d="M1161,1299.45c-2.62-9.61-9.28-19.2-18.28-26.29-17.52-13.81-41.45-16.13-52.07-2.61-4.8,6.09-6.07,14.52-3.57,23.72,2.61,9.61,9.28,19.19,18.29,26.29C1133.92,1343.12,1169.56,1331.14,1161,1299.45Zm-64-7.88c-1.49-5.48-1.41-11.62,2.6-15.63,7.17-7.17,24-4.74,36.72,5.31,7.31,5.76,12.67,13.38,14.72,20.91,6.27,23-20.53,25.13-39.32,10.31C1104.38,1306.71,1099,1299.09,1097,1291.57Z"/><path class="cls-1" d="M1165.24,1373.51c-5.44-7.54-13.9-13.44-23.83-16.61s-20.24-3.25-29-.24c-9.35,3.2-15.93,9.46-18.53,17.64s-.86,17.09,4.91,25.1c5.44,7.55,13.9,13.44,23.83,16.61s20.23,3.24,29,.24,15.76-8.94,18.53-17.64C1172.76,1390.44,1171,1381.52,1165.24,1373.51Zm-4.91,22c-1.58,5-5.86,8.9-12,11-6.72,2.3-14.74,2.19-22.58-.31s-14.43-7-18.59-12.81c-3.82-5.3-5-11-3.45-16h0c1.75-5.51,6.56-9.13,12-11,6.73-2.3,14.75-2.19,22.59.31s14.43,7,18.59,12.81C1160.7,1384.83,1161.92,1390.5,1160.33,1395.49Z"/><path class="cls-1" d="M1210.32,1270.58c11-11,9.06-33.17-4.5-50.38-14.46-18.34-38.79-26.15-51.91-13-11,11-9.06,33.18,4.5,50.39C1172.9,1275.92,1197.22,1283.68,1210.32,1270.58Zm-43.82-19.4c-10-12.74-12.47-29.56-5.3-36.73a9.32,9.32,0,0,1,.93-.83c4.32-3.46,10.72-3.07,16-1.37,7.12,2.3,14.28,7.52,19.64,14.32,10.4,13.2,12.7,31.15,4.37,37.57l0,0c-3.7,2.93-9.5,3.41-15.9,1.34C1179,1263.2,1171.87,1258,1166.5,1251.18Z"/><path class="cls-1" d="M1284.52,1213.66c-16.49-11.88-36.09-5.84-42.74,13.62-6.22,18.2,1.23,41.61,16.85,52.87,16.68,12,36.17,5.6,42.74-13.62C1307.59,1248.32,1300.14,1224.92,1284.52,1213.66Zm7.1,49.53c-2.12,6.19-6,10.46-11,12h0c-5,1.58-10.66.36-16-3.46-11.92-8.59-17.88-27.24-13.12-41.18,4.36-12.77,16-16.49,27-8.59C1290.4,1230.59,1296.39,1249.23,1291.62,1263.19Z"/><path class="cls-1" d="M1589.64,1302.46a5.15,5.15,0,1,0,7.29,0A5.15,5.15,0,0,0,1589.64,1302.46Z"/><path class="cls-1" d="M1641.75,1289.57c-6.83,0-24.34-1-45.85-9.4a44.1,44.1,0,0,0-57.56,57.57c10.6,27,9.35,48.13,9.34,48.33,0,0,0,0,0,.07a44.27,44.27,0,0,0,53.15,45.74,48.9,48.9,0,0,0,32.9-23.76,93,93,0,0,1,32.75-32.62,48.55,48.55,0,0,0,23.77-32.63,44.36,44.36,0,0,0-48.49-53.3Zm38.39,51.24a38.23,38.23,0,0,1-18.72,25.71,103.25,103.25,0,0,0-36.65,36.5,38.58,38.58,0,0,1-26,18.76,34,34,0,0,1-40.84-35c.09-1.46,1.33-23.86-10-52.81l0-.08a33.79,33.79,0,0,1,44.13-44.14l.08,0c23.5,9.23,42.79,10.16,50,10.13l.61,0a34.05,34.05,0,0,1,37.44,41Z"/><path class="cls-1" d="M1614.06,1307a5.15,5.15,0,0,0-2.13,10.08,147.66,147.66,0,0,0,30.24,3.36,5.15,5.15,0,1,0,0-10.3A137.25,137.25,0,0,1,1614.06,1307Z"/><path class="cls-1" d="M1518.32,1283.88c-2.62-9.62-9.29-19.2-18.29-26.29-17.51-13.82-41.44-16.14-52.06-2.62-4.81,6.1-6.07,14.52-3.57,23.72,2.61,9.61,9.28,19.2,18.28,26.3C1491.29,1327.55,1526.93,1315.56,1518.32,1283.88Zm-64-7.89c-1.49-5.48-1.41-11.61,2.6-15.62,7.17-7.17,24-4.74,36.72,5.31,7.3,5.75,12.67,13.37,14.72,20.9,6.27,23.06-20.53,25.13-39.32,10.32C1461.75,1291.13,1456.38,1283.51,1454.34,1276Z"/><path class="cls-1" d="M1522.6,1357.94c-5.43-7.55-13.89-13.45-23.82-16.61s-20.24-3.25-29-.24c-9.35,3.19-15.93,9.46-18.53,17.63s-.86,17.09,4.91,25.11c5.44,7.54,13.9,13.44,23.82,16.6s20.24,3.25,29,.24,15.77-8.94,18.54-17.63C1530.12,1374.86,1528.38,1366,1522.6,1357.94Zm-4.9,22c-1.59,5-5.87,8.9-12,11-6.72,2.3-14.74,2.19-22.58-.3s-14.44-7-18.59-12.82c-3.82-5.3-5-11-3.46-16h0c1.76-5.52,6.56-9.14,12-11,6.73-2.29,14.75-2.18,22.58.31s14.44,7,18.6,12.82C1518.06,1369.26,1519.29,1374.92,1517.7,1379.91Z"/><path class="cls-1" d="M1567.69,1255c11-11,9.06-33.17-4.5-50.39-14.46-18.33-38.79-26.14-51.91-13-11,11-9.07,33.17,4.5,50.38C1530.26,1260.35,1554.59,1268.1,1567.69,1255Zm-43.82-19.41c-10-12.74-12.47-29.55-5.31-36.72a10.84,10.84,0,0,1,.94-.84c4.32-3.45,10.72-3.06,16-1.37,7.13,2.31,14.28,7.53,19.65,14.33,10.4,13.2,12.7,31.14,4.36,37.56l0,0c-3.7,2.92-9.5,3.41-15.9,1.33C1536.39,1247.63,1529.23,1242.4,1523.87,1235.6Z"/><path class="cls-1" d="M1641.89,1198.09c-16.49-11.88-36.09-5.84-42.74,13.62-6.22,18.2,1.23,41.61,16.85,52.86,16.68,12,36.16,5.6,42.73-13.62C1665,1232.74,1657.5,1209.34,1641.89,1198.09Zm7.09,49.53c-2.11,6.18-6,10.46-11,12.05h0c-5,1.59-10.65.36-16-3.46-11.92-8.59-17.89-27.23-13.12-41.17,4.36-12.78,16-16.5,27-8.6C1647.76,1215,1653.76,1233.66,1649,1247.62Z"/><path class="cls-1" d="M1924.26,1637.08a5.15,5.15,0,1,0,7.29,0A5.16,5.16,0,0,0,1924.26,1637.08Z"/><path class="cls-1" d="M1976.37,1624.2c-6.83,0-24.34-1-45.85-9.4a44.09,44.09,0,0,0-57.56,57.56c10.6,27,9.35,48.13,9.34,48.33a.22.22,0,0,1,0,.08,44.18,44.18,0,0,0,12.85,33.62,43.71,43.71,0,0,0,40.3,12.11,48.9,48.9,0,0,0,32.9-23.76,93.17,93.17,0,0,1,32.76-32.62,48.57,48.57,0,0,0,23.76-32.63,44.35,44.35,0,0,0-48.49-53.29Zm38.4,51.23a38.32,38.32,0,0,1-18.73,25.72,103.12,103.12,0,0,0-36.65,36.49,38.58,38.58,0,0,1-26,18.76,34,34,0,0,1-40.84-35c.09-1.46,1.33-23.86-10-52.81l0-.08a33.79,33.79,0,0,1,44.13-44.13l.08,0c23.5,9.24,42.79,10.16,50,10.13.2,0,.41,0,.62,0a34.06,34.06,0,0,1,37.44,41Z"/><path class="cls-1" d="M1948.68,1641.66a5.15,5.15,0,0,0-2.13,10.08,147.72,147.72,0,0,0,30.24,3.36,5.15,5.15,0,1,0,0-10.3A137.25,137.25,0,0,1,1948.68,1641.66Z"/><path class="cls-1" d="M1852.94,1618.5c-2.62-9.62-9.28-19.2-18.29-26.29-17.51-13.82-41.44-16.14-52.06-2.62-4.8,6.1-6.07,14.52-3.57,23.73,2.61,9.6,9.28,19.19,18.28,26.29C1825.91,1662.17,1861.55,1650.18,1852.94,1618.5Zm-64-7.89c-1.49-5.47-1.41-11.61,2.6-15.62,7.17-7.17,24-4.74,36.72,5.31,7.3,5.75,12.67,13.37,14.72,20.9,6.27,23.06-20.53,25.14-39.32,10.32C1796.37,1625.76,1791,1618.14,1789,1610.61Z"/><path class="cls-1" d="M1857.22,1692.56c-5.43-7.55-13.89-13.45-23.82-16.61s-20.24-3.25-29-.24c-9.35,3.19-15.93,9.46-18.53,17.64s-.86,17.08,4.91,25.1c5.44,7.54,13.9,13.44,23.82,16.6s20.24,3.25,29,.24,15.77-8.94,18.54-17.63C1864.74,1709.48,1863,1700.57,1857.22,1692.56Zm-4.9,22c-1.59,5-5.87,8.9-12,11-6.72,2.3-14.74,2.19-22.58-.3s-14.44-7-18.59-12.81c-3.82-5.3-5-11-3.46-16h0c1.76-5.52,6.56-9.14,12-11,6.73-2.3,14.75-2.19,22.58.3s14.44,7,18.6,12.82C1852.69,1703.88,1853.91,1709.54,1852.32,1714.53Z"/><path class="cls-1" d="M1902.31,1589.63c11-11,9.06-33.17-4.5-50.39-14.46-18.33-38.79-26.14-51.91-13-11,11-9.07,33.17,4.5,50.38C1864.89,1595,1889.21,1602.73,1902.31,1589.63Zm-43.82-19.41c-10-12.74-12.47-29.55-5.31-36.72a10.84,10.84,0,0,1,.94-.84c4.32-3.45,10.72-3.06,16-1.37,7.13,2.31,14.29,7.53,19.65,14.33,10.4,13.2,12.7,31.14,4.36,37.56l0,0c-3.7,2.92-9.5,3.41-15.9,1.33C1871,1582.25,1863.86,1577,1858.49,1570.22Z"/><path class="cls-1" d="M1976.51,1532.71c-16.49-11.88-36.09-5.84-42.74,13.62-6.22,18.2,1.23,41.61,16.85,52.86,16.68,12,36.16,5.61,42.73-13.62C1999.58,1567.37,1992.12,1544,1976.51,1532.71Zm7.1,49.53c-2.12,6.18-6,10.46-11,12h0c-5,1.59-10.65.36-15.95-3.46-11.92-8.58-17.89-27.23-13.12-41.17,4.36-12.78,16-16.5,27-8.59C1982.38,1549.64,1988.38,1568.28,1983.61,1582.24Z"/><path class="cls-1" d="M2266.06,1978.87a5.15,5.15,0,1,0,7.28,0A5.14,5.14,0,0,0,2266.06,1978.87Z"/><path class="cls-1" d="M2318.16,1966c-6.83,0-24.34-1-45.85-9.4a44.09,44.09,0,0,0-57.56,57.56c10.6,27,9.35,48.13,9.34,48.33v.08a44.13,44.13,0,0,0,12.84,33.62,43.69,43.69,0,0,0,40.3,12.11,48.84,48.84,0,0,0,32.9-23.76,93.17,93.17,0,0,1,32.76-32.62,48.53,48.53,0,0,0,23.76-32.63,44.36,44.36,0,0,0-48.49-53.29Zm38.4,51.23a38.28,38.28,0,0,1-18.72,25.72,103.18,103.18,0,0,0-36.66,36.5,38.6,38.6,0,0,1-26,18.75,34,34,0,0,1-40.84-35c.09-1.46,1.33-23.86-10-52.8l0-.09a33.79,33.79,0,0,1,44.13-44.13l.08,0c23.5,9.24,42.8,10.16,50,10.13.21,0,.41,0,.62,0a34.06,34.06,0,0,1,37.44,41Z"/><path class="cls-1" d="M2290.48,1983.45a5.15,5.15,0,1,0-2.13,10.08,146.85,146.85,0,0,0,30.23,3.36,5.15,5.15,0,1,0,0-10.3A136.37,136.37,0,0,1,2290.48,1983.45Z"/><path class="cls-1" d="M2194.73,1960.29c-2.62-9.62-9.28-19.2-18.28-26.29-17.52-13.82-41.45-16.14-52.07-2.62-4.8,6.1-6.07,14.52-3.57,23.73,2.61,9.61,9.28,19.19,18.29,26.29C2167.7,2004,2203.34,1992,2194.73,1960.29Zm-64-7.89c-1.49-5.47-1.41-11.61,2.6-15.62,7.17-7.17,24-4.74,36.72,5.31,7.31,5.76,12.67,13.37,14.72,20.9,6.27,23.06-20.53,25.14-39.32,10.32C2138.16,1967.55,2132.8,1959.93,2130.75,1952.4Z"/><path class="cls-1" d="M2199,2034.35c-5.44-7.55-13.9-13.44-23.83-16.61s-20.24-3.25-29-.24c-9.35,3.2-15.93,9.46-18.53,17.64s-.86,17.09,4.91,25.1c5.44,7.54,13.9,13.44,23.83,16.61s20.23,3.24,29,.23,15.76-8.94,18.53-17.63C2206.54,2051.28,2204.79,2042.36,2199,2034.35Zm-4.91,22c-1.58,5-5.86,8.9-12.05,11-6.72,2.3-14.74,2.19-22.58-.31s-14.43-7.05-18.59-12.81c-3.82-5.3-5-11-3.45-16h0c1.75-5.52,6.56-9.14,12-11,6.73-2.3,14.75-2.19,22.59.31s14.43,7,18.59,12.81C2194.48,2045.67,2195.7,2051.34,2194.11,2056.32Z"/><path class="cls-1" d="M2244.1,1931.42c11-11,9.06-33.17-4.5-50.39-14.46-18.33-38.79-26.14-51.91-13-11,11-9.06,33.17,4.5,50.38C2206.68,1936.76,2231,1944.52,2244.1,1931.42Zm-43.82-19.4c-10-12.74-12.47-29.56-5.3-36.73a11,11,0,0,1,.93-.84c4.32-3.45,10.72-3.06,16-1.36,7.12,2.3,14.28,7.52,19.64,14.32,10.4,13.2,12.7,31.15,4.37,37.57l-.05,0c-3.7,2.92-9.5,3.41-15.9,1.34C2212.81,1924,2205.65,1918.82,2200.28,1912Z"/><path class="cls-1" d="M2318.3,1874.5c-16.49-11.88-36.09-5.84-42.74,13.62-6.22,18.2,1.23,41.61,16.85,52.86,16.68,12,36.17,5.61,42.74-13.62C2341.37,1909.16,2333.92,1885.75,2318.3,1874.5Zm7.1,49.53c-2.12,6.18-6,10.46-11,12h0c-5,1.59-10.66.36-16-3.45-11.92-8.59-17.88-27.24-13.12-41.18,4.36-12.77,16-16.49,27-8.59C2324.18,1891.43,2330.17,1910.07,2325.4,1924Z"/><path class="cls-1" d="M1567.16,1652.39a5.15,5.15,0,1,0,7.28,0A5.16,5.16,0,0,0,1567.16,1652.39Z"/><path class="cls-1" d="M1619.26,1639.51c-6.82,0-24.34-1-45.85-9.4a44.09,44.09,0,0,0-57.55,57.56c10.6,27,9.35,48.13,9.33,48.33v.08A44.14,44.14,0,0,0,1538,1769.7a43.67,43.67,0,0,0,40.29,12.11,48.86,48.86,0,0,0,32.91-23.76,93,93,0,0,1,32.75-32.62,48.55,48.55,0,0,0,23.77-32.63,44.37,44.37,0,0,0-48.5-53.29Zm38.4,51.23a38.28,38.28,0,0,1-18.72,25.72,103.25,103.25,0,0,0-36.65,36.5,38.59,38.59,0,0,1-26,18.75,33.52,33.52,0,0,1-31-9.29,33.86,33.86,0,0,1-9.85-25.75c.1-1.45,1.34-23.86-10-52.8a.2.2,0,0,0,0-.08,33.79,33.79,0,0,1,44.13-44.14l.08,0c23.51,9.24,42.8,10.16,50,10.13.21,0,.42,0,.62,0a34.05,34.05,0,0,1,37.44,41Z"/><path class="cls-1" d="M1591.58,1657a5.15,5.15,0,0,0-2.13,10.08,146.85,146.85,0,0,0,30.23,3.36,5.15,5.15,0,1,0,0-10.3A136.51,136.51,0,0,1,1591.58,1657Z"/><path class="cls-1" d="M1495.83,1633.81c-2.61-9.62-9.28-19.2-18.28-26.29-17.51-13.82-41.44-16.14-52.06-2.61-4.81,6.09-6.08,14.51-3.58,23.72,2.62,9.61,9.28,19.19,18.29,26.29C1468.8,1677.48,1504.45,1665.5,1495.83,1633.81Zm-64-7.89c-1.48-5.47-1.4-11.61,2.61-15.62,7.16-7.17,24-4.74,36.71,5.31,7.31,5.76,12.68,13.37,14.72,20.9,6.28,23.06-20.53,25.14-39.31,10.32C1439.27,1641.07,1433.9,1633.45,1431.85,1625.92Z"/><path class="cls-1" d="M1500.12,1707.87c-5.44-7.55-13.9-13.44-23.82-16.61s-20.24-3.25-29-.24c-9.35,3.2-15.93,9.46-18.54,17.64s-.86,17.09,4.92,25.1c5.44,7.55,13.89,13.44,23.82,16.61s20.24,3.24,29,.23,15.76-8.94,18.53-17.63C1507.64,1724.8,1505.89,1715.88,1500.12,1707.87Zm-4.9,22c-1.59,5-5.87,8.9-12,11-6.73,2.3-14.75,2.19-22.58-.31s-14.44-7-18.59-12.81c-3.82-5.3-5-11-3.46-16h0c1.76-5.52,6.56-9.14,12-11,6.72-2.3,14.74-2.19,22.58.31s14.44,7,18.59,12.81C1495.58,1719.19,1496.81,1724.86,1495.22,1729.84Z"/><path class="cls-1" d="M1545.2,1604.94c11-11,9.07-33.17-4.5-50.39-14.45-18.33-38.78-26.14-51.9-13-11,11-9.07,33.17,4.5,50.38C1507.78,1610.28,1532.11,1618,1545.2,1604.94Zm-43.81-19.4c-10-12.74-12.48-29.56-5.31-36.73a11,11,0,0,1,.94-.84c4.31-3.45,10.71-3.06,16-1.36,7.12,2.3,14.28,7.52,19.64,14.32,10.41,13.2,12.71,31.15,4.37,37.57l0,0c-3.7,2.92-9.49,3.41-15.9,1.34C1513.91,1597.56,1506.75,1592.34,1501.39,1585.54Z"/><path class="cls-1" d="M1619.4,1548c-16.48-11.88-36.09-5.84-42.73,13.62-6.22,18.2,1.23,41.61,16.84,52.86,16.69,12,36.17,5.61,42.74-13.62C1642.47,1582.68,1635,1559.27,1619.4,1548Zm7.1,49.53c-2.11,6.18-6,10.46-11,12h0c-5,1.59-10.66.37-16-3.45-11.92-8.59-17.89-27.24-13.13-41.18,4.37-12.77,16-16.49,27-8.59C1625.28,1565,1631.28,1583.59,1626.5,1597.55Z"/><path class="cls-1" d="M1909,1994.19a5.15,5.15,0,1,0,7.29,0A5.15,5.15,0,0,0,1909,1994.19Z"/><path class="cls-1" d="M1961.06,1981.3c-6.83,0-24.35-1-45.85-9.4a44.09,44.09,0,0,0-57.56,57.56c10.6,27,9.35,48.14,9.34,48.34a.17.17,0,0,0,0,.07,44.17,44.17,0,0,0,12.85,33.63,43.7,43.7,0,0,0,40.3,12.1,48.86,48.86,0,0,0,32.9-23.75,92.81,92.81,0,0,1,32.75-32.62,48.57,48.57,0,0,0,23.77-32.63,44.36,44.36,0,0,0-48.49-53.3Zm38.39,51.24a38.23,38.23,0,0,1-18.72,25.71,103.25,103.25,0,0,0-36.65,36.5,38.57,38.57,0,0,1-26,18.75,33.46,33.46,0,0,1-31-9.29,33.85,33.85,0,0,1-9.85-25.74c.1-1.46,1.34-23.86-10-52.81l0-.08a33.79,33.79,0,0,1,44.13-44.14l.08,0c23.5,9.24,42.79,10.16,50,10.13a4.17,4.17,0,0,0,.61,0,34.05,34.05,0,0,1,37.44,41Z"/><path class="cls-1" d="M1933.37,1998.76a5.15,5.15,0,0,0-2.13,10.08,146.92,146.92,0,0,0,30.24,3.36,5.15,5.15,0,1,0,0-10.3A136.51,136.51,0,0,1,1933.37,1998.76Z"/><path class="cls-1" d="M1837.63,1975.6c-2.62-9.61-9.29-19.2-18.29-26.29-17.51-13.81-41.44-16.13-52.06-2.61-4.81,6.09-6.07,14.52-3.57,23.72,2.61,9.61,9.28,19.19,18.28,26.29C1810.59,2019.27,1846.24,2007.29,1837.63,1975.6Zm-64-7.88c-1.49-5.48-1.41-11.62,2.6-15.63,7.16-7.17,24-4.74,36.71,5.31,7.31,5.76,12.68,13.38,14.73,20.91,6.27,23-20.54,25.13-39.32,10.31C1781.06,1982.86,1775.69,1975.24,1773.65,1967.72Z"/><path class="cls-1" d="M1841.91,2049.66c-5.44-7.54-13.9-13.44-23.82-16.61s-20.24-3.25-29-.24c-9.35,3.2-15.93,9.46-18.53,17.64s-.86,17.09,4.91,25.1c5.44,7.55,13.9,13.44,23.82,16.61s20.24,3.24,29,.24,15.77-8.94,18.54-17.64C1849.43,2066.59,1847.69,2057.67,1841.91,2049.66Zm-4.9,22c-1.59,5-5.87,8.9-12,11-6.73,2.3-14.75,2.19-22.58-.31s-14.44-7-18.59-12.81c-3.82-5.3-5-11-3.46-16h0c1.76-5.51,6.56-9.13,12.05-11,6.72-2.3,14.74-2.19,22.58.31s14.44,7.05,18.6,12.81C1837.37,2061,1838.6,2066.65,1837,2071.64Z"/><path class="cls-1" d="M1887,1946.73c11-11,9.07-33.17-4.49-50.38-14.46-18.34-38.79-26.15-51.91-13-11,11-9.07,33.18,4.5,50.39C1849.57,1952.07,1873.9,1959.83,1887,1946.73Zm-43.81-19.4c-10-12.74-12.47-29.56-5.31-36.73a10.58,10.58,0,0,1,.94-.83c4.32-3.46,10.72-3.07,16-1.37,7.12,2.3,14.28,7.52,19.65,14.32,10.4,13.2,12.7,31.15,4.36,37.57l0,0c-3.7,2.93-9.5,3.41-15.91,1.34C1855.7,1939.35,1848.54,1934.13,1843.18,1927.33Z"/><path class="cls-1" d="M1961.2,1889.81c-16.49-11.88-36.09-5.84-42.74,13.62-6.22,18.2,1.23,41.61,16.85,52.87,16.68,12,36.16,5.6,42.73-13.62C1984.27,1924.47,1976.81,1901.06,1961.2,1889.81Zm7.09,49.53c-2.11,6.19-6,10.46-11,12.05h0c-5,1.59-10.65.37-16-3.45-11.92-8.59-17.89-27.24-13.12-41.18,4.36-12.77,16-16.49,27-8.59C1967.07,1906.74,1973.07,1925.38,1968.29,1939.34Z"/><rect class="cls-2" x="1026.04" y="2068.99" width="224.44" height="193.19"/><rect class="cls-2" x="2196.96" y="998.56" width="224.44" height="193.19"/><path class="cls-1" d="M206.24,319.47a5.15,5.15,0,1,0,7.28,0A5.15,5.15,0,0,0,206.24,319.47Z"/><path class="cls-1" d="M258.34,306.59c-6.83,0-24.34-1-45.85-9.4a44.1,44.1,0,0,0-57.56,57.56c10.6,27,9.35,48.13,9.34,48.33v.08a44.17,44.17,0,0,0,12.84,33.62,43.72,43.72,0,0,0,40.3,12.11,48.9,48.9,0,0,0,32.9-23.76,93.17,93.17,0,0,1,32.76-32.62,48.53,48.53,0,0,0,23.76-32.63,44.35,44.35,0,0,0-48.49-53.29Zm38.4,51.23A38.26,38.26,0,0,1,278,383.53,103.18,103.18,0,0,0,241.36,420a38.56,38.56,0,0,1-26,18.76,33.5,33.5,0,0,1-31-9.29,33.86,33.86,0,0,1-9.85-25.75c.1-1.46,1.33-23.86-10.05-52.81l0-.08a33.79,33.79,0,0,1,44.13-44.13l.08,0c23.51,9.24,42.8,10.16,50,10.13l.62,0a34.06,34.06,0,0,1,37.44,41Z"/><path class="cls-1" d="M230.66,324.05a5.15,5.15,0,1,0-2.13,10.08,147.58,147.58,0,0,0,30.23,3.36,5.15,5.15,0,0,0,0-10.3A137.17,137.17,0,0,1,230.66,324.05Z"/><path class="cls-1" d="M134.91,300.89c-2.62-9.62-9.28-19.2-18.28-26.29C99.11,260.78,75.19,258.46,64.56,272c-4.8,6.1-6.07,14.52-3.57,23.72,2.62,9.61,9.28,19.2,18.29,26.3C107.88,344.56,143.53,332.57,134.91,300.89Zm-64-7.89c-1.49-5.48-1.41-11.61,2.6-15.62,7.17-7.17,24-4.74,36.72,5.31,7.31,5.75,12.67,13.37,14.72,20.9,6.27,23.06-20.53,25.14-39.32,10.32C78.34,308.15,73,300.52,70.93,293Z"/><path class="cls-1" d="M139.2,375c-5.44-7.55-13.9-13.45-23.83-16.61s-20.24-3.25-29-.24C77,361.29,70.4,367.56,67.8,375.73s-.86,17.09,4.91,25.11c5.44,7.54,13.9,13.44,23.83,16.6s20.24,3.25,29,.24,15.76-8.94,18.53-17.63C146.72,391.87,145,383,139.2,375Zm-4.9,22c-1.59,5-5.87,8.9-12.05,11-6.73,2.3-14.75,2.19-22.59-.3s-14.43-7.05-18.59-12.82c-3.82-5.29-5-11-3.45-15.95h0c1.75-5.52,6.56-9.14,12-11,6.73-2.3,14.75-2.19,22.59.3s14.44,7.05,18.59,12.82C134.66,386.27,135.89,391.93,134.3,396.92Z"/><path class="cls-1" d="M184.28,272c11-11,9.06-33.17-4.5-50.39-14.45-18.33-38.79-26.14-51.91-13-11,11-9.06,33.17,4.51,50.38C146.86,277.36,171.18,285.11,184.28,272Zm-43.81-19.41c-10.05-12.74-12.48-29.55-5.31-36.72a8.52,8.52,0,0,1,.94-.84c4.31-3.45,10.71-3.06,16-1.37,7.12,2.31,14.28,7.53,19.64,14.33,10.4,13.2,12.7,31.14,4.37,37.56l-.05,0c-3.7,2.92-9.5,3.41-15.9,1.33C153,264.64,145.83,259.41,140.47,252.61Z"/><path class="cls-1" d="M258.48,215.1c-16.49-11.88-36.09-5.84-42.74,13.62-6.22,18.2,1.23,41.61,16.85,52.86,16.68,12,36.17,5.61,42.74-13.62C281.55,249.76,274.1,226.35,258.48,215.1Zm7.1,49.53c-2.11,6.18-6,10.46-11,12.05h0c-5,1.59-10.66.36-16-3.46-11.92-8.58-17.88-27.23-13.12-41.17,4.37-12.78,16-16.5,27-8.59C264.36,232,270.35,250.67,265.58,264.63Z"/><path class="cls-1" d="M563.6,303.9a5.15,5.15,0,1,0,7.29,0A5.15,5.15,0,0,0,563.6,303.9Z"/><path class="cls-1" d="M615.71,291c-6.83,0-24.34-.95-45.85-9.4a44.09,44.09,0,0,0-57.56,57.56c10.6,27,9.35,48.14,9.34,48.34a.17.17,0,0,1,0,.07,44.21,44.21,0,0,0,12.85,33.63,43.7,43.7,0,0,0,40.3,12.1,48.86,48.86,0,0,0,32.9-23.75,92.95,92.95,0,0,1,32.76-32.62,48.59,48.59,0,0,0,23.76-32.63A44.36,44.36,0,0,0,615.71,291Zm38.4,51.24A38.28,38.28,0,0,1,635.38,368a103.25,103.25,0,0,0-36.65,36.5,38.57,38.57,0,0,1-26,18.75,33.48,33.48,0,0,1-31-9.29,33.84,33.84,0,0,1-9.84-25.74c.09-1.46,1.33-23.86-10-52.81l0-.08A33.8,33.8,0,0,1,566,291.15l.08,0c23.5,9.24,42.79,10.16,50,10.13a4.4,4.4,0,0,0,.62,0,34.06,34.06,0,0,1,37.44,41Z"/><path class="cls-1" d="M588,308.47a5.15,5.15,0,0,0-2.13,10.08,147,147,0,0,0,30.24,3.36,5.15,5.15,0,0,0,0-10.3A136.51,136.51,0,0,1,588,308.47Z"/><path class="cls-1" d="M492.28,285.31C489.66,275.7,483,266.11,474,259c-17.51-13.81-41.44-16.13-52.06-2.61-4.8,6.09-6.07,14.52-3.57,23.72,2.61,9.61,9.28,19.19,18.28,26.29C465.25,329,500.89,317,492.28,285.31Zm-64-7.88c-1.49-5.48-1.41-11.62,2.6-15.63,7.17-7.17,24-4.74,36.72,5.31,7.3,5.76,12.67,13.38,14.72,20.91,6.27,23.05-20.53,25.13-39.32,10.31C435.71,292.57,430.35,285,428.3,277.43Z"/><path class="cls-1" d="M496.56,359.37c-5.43-7.54-13.89-13.44-23.82-16.61s-20.24-3.25-29-.24c-9.35,3.2-15.93,9.46-18.53,17.64s-.86,17.09,4.91,25.1c5.44,7.55,13.9,13.44,23.82,16.61s20.24,3.25,29,.24,15.77-8.94,18.54-17.64C504.08,376.3,502.34,367.38,496.56,359.37Zm-4.9,22c-1.59,5-5.87,8.9-12.05,11-6.72,2.3-14.74,2.19-22.58-.31s-14.44-7-18.59-12.81c-3.82-5.3-5.05-11-3.46-15.95h0c1.76-5.51,6.56-9.13,12-11,6.73-2.3,14.75-2.19,22.58.31s14.44,7.05,18.6,12.81C492,370.69,493.25,376.36,491.66,381.35Z"/><path class="cls-1" d="M541.65,256.44c11-11,9.06-33.17-4.5-50.38-14.46-18.34-38.79-26.15-51.91-13-11,11-9.07,33.18,4.5,50.39C504.23,261.78,528.55,269.54,541.65,256.44ZM497.83,237c-10-12.74-12.47-29.56-5.31-36.73a10.58,10.58,0,0,1,.94-.83c4.32-3.46,10.72-3.07,16-1.37,7.13,2.3,14.29,7.52,19.65,14.32,10.4,13.2,12.7,31.15,4.36,37.57l0,0c-3.7,2.93-9.5,3.41-15.9,1.34C510.36,249.06,503.2,243.84,497.83,237Z"/><path class="cls-1" d="M615.85,199.52c-16.49-11.88-36.09-5.84-42.74,13.62-6.22,18.2,1.23,41.61,16.85,52.87,16.68,12,36.16,5.6,42.73-13.62C638.92,234.18,631.46,210.78,615.85,199.52Zm7.1,49.53c-2.12,6.19-6,10.46-11,12.05h0c-5,1.58-10.65.36-15.95-3.46-11.92-8.59-17.89-27.24-13.12-41.18,4.36-12.77,16-16.49,27-8.59C621.72,216.45,627.72,235.09,623,249.05Z"/><path class="cls-1" d="M898.22,638.52a5.15,5.15,0,1,0,7.29,0A5.15,5.15,0,0,0,898.22,638.52Z"/><path class="cls-1" d="M950.33,625.63c-6.83,0-24.34-1-45.85-9.4a44.1,44.1,0,0,0-57.56,57.57c10.6,27,9.35,48.13,9.34,48.33v.07a44.15,44.15,0,0,0,12.84,33.63,43.71,43.71,0,0,0,40.3,12.1,48.86,48.86,0,0,0,32.9-23.75,92.95,92.95,0,0,1,32.76-32.62,48.56,48.56,0,0,0,23.76-32.63,44.36,44.36,0,0,0-48.49-53.3Zm38.4,51.24A38.25,38.25,0,0,1,970,702.58a103.25,103.25,0,0,0-36.65,36.5,38.57,38.57,0,0,1-26,18.75,33.48,33.48,0,0,1-31-9.29,33.84,33.84,0,0,1-9.84-25.74c.09-1.46,1.33-23.86-10-52.81l0-.08a33.8,33.8,0,0,1,44.13-44.14l.08,0c23.5,9.24,42.8,10.16,50,10.13a4.3,4.3,0,0,0,.62,0,34.06,34.06,0,0,1,37.44,41Z"/><path class="cls-1" d="M922.64,643.09a5.15,5.15,0,1,0-2.12,10.08,146.85,146.85,0,0,0,30.23,3.36,5.15,5.15,0,1,0,0-10.3A135.79,135.79,0,0,1,922.64,643.09Z"/><path class="cls-1" d="M826.9,619.93c-2.62-9.61-9.28-19.2-18.28-26.29-17.52-13.81-41.45-16.13-52.07-2.61-4.8,6.09-6.07,14.52-3.57,23.72,2.61,9.61,9.28,19.19,18.28,26.29C799.87,663.61,835.51,651.62,826.9,619.93Zm-64-7.88c-1.49-5.48-1.41-11.62,2.6-15.63,7.17-7.16,24-4.73,36.72,5.31,7.31,5.76,12.67,13.38,14.72,20.91,6.27,23.06-20.53,25.13-39.32,10.31C770.33,627.19,765,619.57,762.92,612.05Z"/><path class="cls-1" d="M831.19,694c-5.44-7.54-13.9-13.44-23.83-16.6s-20.24-3.25-29-.25c-9.35,3.2-15.93,9.46-18.53,17.64s-.86,17.09,4.91,25.1c5.44,7.55,13.9,13.45,23.83,16.61s20.23,3.25,29,.24,15.76-8.94,18.53-17.63C838.7,710.92,837,702,831.19,694Zm-4.91,22c-1.58,5-5.86,8.9-12,11-6.72,2.3-14.74,2.19-22.58-.31s-14.43-7-18.59-12.81c-3.82-5.3-5-11-3.45-16h0c1.75-5.52,6.56-9.14,12-11,6.73-2.3,14.75-2.19,22.59.31s14.43,7,18.59,12.81C826.65,705.31,827.87,711,826.28,716Z"/><path class="cls-1" d="M876.27,591.07c11-11,9.06-33.18-4.5-50.39-14.46-18.34-38.79-26.15-51.91-13-11,11.05-9.06,33.18,4.5,50.39C838.85,596.4,863.17,604.16,876.27,591.07Zm-43.82-19.41c-10-12.74-12.47-29.56-5.3-36.72a8.39,8.39,0,0,1,.93-.84c4.32-3.45,10.72-3.07,16-1.37,7.12,2.3,14.28,7.52,19.64,14.32,10.4,13.21,12.7,31.15,4.37,37.57l0,0c-3.7,2.92-9.5,3.4-15.9,1.33C845,583.68,837.82,578.46,832.45,571.66Z"/><path class="cls-1" d="M950.47,534.14c-16.49-11.88-36.09-5.83-42.74,13.62-6.22,18.2,1.23,41.61,16.85,52.87,16.68,12,36.17,5.6,42.74-13.62C973.54,568.8,966.08,545.4,950.47,534.14Zm7.1,49.54c-2.12,6.18-6,10.46-11,12.05h0c-5,1.59-10.66.36-16-3.46-11.92-8.59-17.88-27.24-13.12-41.18,4.36-12.77,16-16.49,27-8.59C956.35,551.08,962.34,569.71,957.57,583.68Z"/><path class="cls-1" d="M1240,980.31a5.15,5.15,0,1,0,7.28,0A5.15,5.15,0,0,0,1240,980.31Z"/><path class="cls-1" d="M1292.12,967.42c-6.83,0-24.34-.95-45.85-9.4a44.1,44.1,0,0,0-57.56,57.57c10.6,27,9.35,48.13,9.34,48.33v.07a44.19,44.19,0,0,0,12.84,33.63,43.72,43.72,0,0,0,40.3,12.1,48.86,48.86,0,0,0,32.9-23.75,92.95,92.95,0,0,1,32.76-32.62,48.53,48.53,0,0,0,23.76-32.63,44.36,44.36,0,0,0-48.49-53.3Zm38.4,51.24a38.26,38.26,0,0,1-18.72,25.71,103.18,103.18,0,0,0-36.66,36.5,38.52,38.52,0,0,1-26,18.75,33.47,33.47,0,0,1-31-9.28,33.87,33.87,0,0,1-9.85-25.75c.1-1.46,1.33-23.86-10-52.81l0-.08a33.8,33.8,0,0,1,44.13-44.14l.08,0c23.51,9.23,42.8,10.16,50,10.12a4.3,4.3,0,0,0,.62,0,34.06,34.06,0,0,1,37.44,41Z"/><path class="cls-1" d="M1264.44,984.89a5.15,5.15,0,1,0-2.13,10.08,148.32,148.32,0,0,0,30.23,3.36,5.16,5.16,0,0,0,0-10.31A136.21,136.21,0,0,1,1264.44,984.89Z"/><path class="cls-1" d="M1168.69,961.73c-2.62-9.62-9.28-19.2-18.28-26.29-17.52-13.82-41.44-16.14-52.07-2.62-4.8,6.1-6.07,14.52-3.57,23.72,2.62,9.61,9.28,19.2,18.29,26.29C1141.66,1005.4,1177.31,993.41,1168.69,961.73Zm-64-7.89c-1.49-5.48-1.41-11.62,2.6-15.63,7.17-7.16,24-4.73,36.72,5.32,7.31,5.75,12.67,13.37,14.72,20.9,6.27,23.06-20.53,25.13-39.32,10.32C1112.12,969,1106.76,961.36,1104.71,953.84Z"/><path class="cls-1" d="M1173,1035.78c-5.44-7.54-13.9-13.44-23.82-16.6s-20.25-3.25-29.05-.24c-9.34,3.19-15.93,9.45-18.53,17.63s-.86,17.09,4.91,25.1c5.44,7.55,13.9,13.45,23.83,16.61s20.24,3.25,29,.24,15.76-8.94,18.53-17.63C1180.5,1052.71,1178.75,1043.8,1173,1035.78Zm-4.9,22c-1.59,5-5.87,8.9-12,11-6.73,2.3-14.75,2.19-22.59-.3s-14.43-7-18.59-12.82c-3.82-5.3-5-11-3.45-16h0c1.75-5.52,6.56-9.14,12-11,6.73-2.3,14.75-2.19,22.59.31s14.44,7,18.59,12.82C1168.44,1047.11,1169.67,1052.77,1168.08,1057.76Z"/><path class="cls-1" d="M1218.06,932.86c11-11,9.06-33.18-4.5-50.39-14.45-18.33-38.79-26.15-51.91-13-11,11-9.06,33.18,4.51,50.39C1180.64,938.19,1205,946,1218.06,932.86Zm-43.81-19.41c-10-12.74-12.48-29.56-5.31-36.72a8.52,8.52,0,0,1,.94-.84c4.31-3.45,10.71-3.06,15.95-1.37,7.12,2.3,14.28,7.53,19.64,14.33,10.4,13.2,12.7,31.14,4.37,37.56l0,0c-3.7,2.92-9.5,3.41-15.9,1.33C1186.77,925.48,1179.61,920.25,1174.25,913.45Z"/><path class="cls-1" d="M1292.26,875.94c-16.49-11.88-36.09-5.84-42.74,13.61-6.22,18.21,1.23,41.62,16.85,52.87,16.68,12,36.17,5.6,42.74-13.62C1315.33,910.59,1307.88,887.19,1292.26,875.94Zm7.1,49.53c-2.11,6.18-6,10.46-11,12h0c-5,1.59-10.66.36-16-3.46-11.92-8.59-17.88-27.23-13.12-41.17,4.37-12.78,16-16.5,27-8.6C1298.14,892.87,1304.13,911.5,1299.36,925.47Z"/><path class="cls-1" d="M541.12,653.83a5.15,5.15,0,1,0,7.28,0A5.15,5.15,0,0,0,541.12,653.83Z"/><path class="cls-1" d="M593.22,640.94c-6.82,0-24.34-1-45.85-9.4a44.09,44.09,0,0,0-57.55,57.57c10.6,27,9.35,48.13,9.34,48.33a.17.17,0,0,0,0,.07A44.16,44.16,0,0,0,512,771.14a43.7,43.7,0,0,0,40.3,12.1,48.86,48.86,0,0,0,32.9-23.75A93,93,0,0,1,618,726.87a48.55,48.55,0,0,0,23.77-32.63,44.36,44.36,0,0,0-48.5-53.3Zm38.4,51.24a38.23,38.23,0,0,1-18.72,25.71,103.25,103.25,0,0,0-36.65,36.5,38.54,38.54,0,0,1-26,18.75,33.48,33.48,0,0,1-31-9.28,33.87,33.87,0,0,1-9.85-25.75c.1-1.46,1.34-23.86-10-52.81l0-.08a33.8,33.8,0,0,1,44.14-44.14l.08,0c23.5,9.23,42.79,10.16,50,10.12a4.21,4.21,0,0,0,.62,0,34.06,34.06,0,0,1,37.44,41Z"/><path class="cls-1" d="M565.54,658.41a5.15,5.15,0,0,0-2.13,10.08,148.33,148.33,0,0,0,30.24,3.36,5.16,5.16,0,0,0,0-10.31A136.28,136.28,0,0,1,565.54,658.41Z"/><path class="cls-1" d="M469.8,635.25c-2.62-9.62-9.29-19.2-18.29-26.29-17.51-13.82-41.44-16.14-52.06-2.62-4.81,6.1-6.08,14.52-3.57,23.72,2.61,9.61,9.28,19.2,18.28,26.29C442.76,678.92,478.41,666.93,469.8,635.25Zm-64-7.89c-1.49-5.48-1.41-11.62,2.6-15.62,7.16-7.17,24-4.74,36.71,5.31,7.31,5.75,12.68,13.37,14.73,20.9,6.27,23.06-20.54,25.13-39.32,10.32C413.23,642.5,407.86,634.88,405.82,627.36Z"/><path class="cls-1" d="M474.08,709.3c-5.44-7.54-13.9-13.44-23.82-16.6s-20.24-3.25-29-.24c-9.35,3.19-15.93,9.46-18.53,17.63s-.86,17.09,4.91,25.1c5.44,7.55,13.9,13.45,23.82,16.61s20.24,3.25,29,.24,15.77-8.94,18.53-17.63C481.6,726.23,479.86,717.32,474.08,709.3Zm-4.9,22c-1.59,5-5.87,8.9-12.05,11-6.73,2.3-14.75,2.19-22.58-.3s-14.44-7-18.59-12.82c-3.82-5.3-5-11-3.46-15.95h0c1.76-5.52,6.56-9.14,12.05-11,6.72-2.29,14.74-2.19,22.58.31s14.44,7,18.59,12.82C469.54,720.63,470.77,726.29,469.18,731.28Z"/><path class="cls-1" d="M519.16,606.38c11-11,9.07-33.18-4.5-50.39-14.45-18.33-38.78-26.14-51.9-13-11.05,11-9.07,33.17,4.5,50.38C481.74,611.72,506.07,619.47,519.16,606.38ZM475.35,587c-10-12.74-12.47-29.56-5.31-36.72a10.84,10.84,0,0,1,.94-.84c4.32-3.45,10.72-3.06,15.95-1.37,7.12,2.31,14.28,7.53,19.64,14.33,10.41,13.2,12.71,31.14,4.37,37.56l0,0c-3.71,2.92-9.5,3.41-15.91,1.33C487.87,599,480.71,593.77,475.35,587Z"/><path class="cls-1" d="M593.37,549.46c-16.49-11.88-36.09-5.84-42.74,13.61-6.22,18.21,1.23,41.62,16.85,52.87,16.68,12,36.16,5.6,42.73-13.62C616.43,584.11,609,560.71,593.37,549.46ZM600.46,599c-2.11,6.18-6,10.46-11,12h0c-5,1.59-10.65.36-16-3.46-11.92-8.59-17.89-27.23-13.13-41.17,4.37-12.78,16-16.5,27-8.6C599.24,566.39,605.24,585,600.46,599Z"/><path class="cls-1" d="M882.91,995.62a5.15,5.15,0,1,0,7.29,0A5.15,5.15,0,0,0,882.91,995.62Z"/><path class="cls-1" d="M935,982.74c-6.83,0-24.34-1-45.85-9.4a44.09,44.09,0,0,0-57.56,57.56c10.6,27,9.35,48.13,9.34,48.33,0,0,0,0,0,.07A44.27,44.27,0,0,0,894.09,1125a48.9,48.9,0,0,0,32.9-23.76,92.95,92.95,0,0,1,32.76-32.62A48.57,48.57,0,0,0,983.51,1036,44.35,44.35,0,0,0,935,982.74ZM973.41,1034a38.23,38.23,0,0,1-18.72,25.71,103.25,103.25,0,0,0-36.65,36.5,38.58,38.58,0,0,1-26,18.76,34,34,0,0,1-40.84-35c.09-1.46,1.33-23.86-10.05-52.81l0-.08a33.79,33.79,0,0,1,44.13-44.14l.08,0c23.5,9.24,42.79,10.16,50,10.13l.61,0a34.05,34.05,0,0,1,37.44,41Z"/><path class="cls-1" d="M907.33,1000.2a5.15,5.15,0,0,0-2.13,10.08,147.66,147.66,0,0,0,30.24,3.36,5.15,5.15,0,0,0,0-10.3A137.25,137.25,0,0,1,907.33,1000.2Z"/><path class="cls-1" d="M811.59,977c-2.62-9.62-9.29-19.2-18.29-26.29-17.51-13.82-41.44-16.14-52.06-2.62-4.81,6.1-6.07,14.52-3.57,23.72,2.61,9.61,9.28,19.2,18.28,26.3C784.56,1020.71,820.2,1008.72,811.59,977Zm-64-7.89c-1.49-5.48-1.41-11.61,2.6-15.62,7.17-7.17,24-4.74,36.72,5.31,7.3,5.75,12.67,13.37,14.72,20.9,6.27,23.06-20.53,25.14-39.32,10.32C755,984.29,749.65,976.67,747.61,969.15Z"/><path class="cls-1" d="M815.87,1051.1c-5.43-7.55-13.89-13.45-23.82-16.61s-20.24-3.25-29-.24c-9.35,3.19-15.93,9.46-18.53,17.63s-.86,17.09,4.91,25.11c5.44,7.54,13.9,13.44,23.82,16.6s20.24,3.25,29,.24,15.77-8.94,18.54-17.63C823.39,1068,821.65,1059.11,815.87,1051.1Zm-4.9,22c-1.59,5-5.87,8.9-12.05,11-6.72,2.3-14.74,2.19-22.58-.3s-14.44-7-18.59-12.82c-3.82-5.3-5-11-3.46-16h0c1.76-5.52,6.56-9.14,12.05-11,6.73-2.3,14.75-2.19,22.58.3s14.44,7,18.6,12.82C811.34,1062.42,812.56,1068.08,811,1073.07Z"/><path class="cls-1" d="M861,948.17c11-11,9.06-33.17-4.5-50.39-14.46-18.33-38.79-26.14-51.91-13-11,11-9.07,33.17,4.5,50.38C823.53,953.51,847.86,961.26,861,948.17Zm-43.82-19.41c-10-12.74-12.47-29.55-5.31-36.72a10.84,10.84,0,0,1,.94-.84c4.32-3.45,10.72-3.06,16-1.37,7.13,2.31,14.28,7.53,19.65,14.33,10.4,13.2,12.7,31.14,4.36,37.56l0,0c-3.7,2.92-9.5,3.41-15.9,1.33C829.66,940.79,822.5,935.56,817.14,928.76Z"/><path class="cls-1" d="M935.16,891.25c-16.49-11.88-36.09-5.84-42.74,13.62-6.22,18.2,1.23,41.61,16.85,52.86,16.68,12,36.16,5.61,42.73-13.62C958.23,925.9,950.77,902.5,935.16,891.25Zm7.1,49.53c-2.12,6.18-6,10.46-11,12.05h0c-5,1.59-10.65.36-16-3.46-11.92-8.59-17.89-27.23-13.12-41.17,4.36-12.78,16-16.5,27-8.59C941,908.18,947,926.82,942.26,940.78Z"/><rect class="cls-2" y="1070.42" width="224.44" height="193.19"/><rect class="cls-2" x="1170.92" width="224.44" height="193.19"/></g></g></svg>